<svg width="17" height="17" viewBox="0 0 17 17" fill="none" xmlns="http://www.w3.org/2000/svg">
<path fill-rule="evenodd" clip-rule="evenodd" d="M7.74997 0.666626C6.62046 0.666722 5.50735 0.93693 4.50351 1.4547C3.49967 1.97248 2.63421 2.72281 1.97933 3.64309C1.32445 4.56337 0.899142 5.62691 0.738891 6.745C0.578639 7.86308 0.688092 9.00327 1.05812 10.0704C1.42814 11.1376 2.04801 12.1008 2.866 12.8797C3.68399 13.6586 4.67639 14.2306 5.7604 14.548C6.8444 14.8653 7.98859 14.9188 9.09748 14.7041C10.2064 14.4893 11.2478 14.0124 12.135 13.3133L15.1783 16.3566C15.3355 16.5084 15.546 16.5924 15.7645 16.5905C15.983 16.5886 16.192 16.501 16.3465 16.3465C16.501 16.192 16.5886 15.983 16.5905 15.7645C16.5924 15.546 16.5084 15.3355 16.3566 15.1783L13.3133 12.135C14.1366 11.0905 14.6493 9.83529 14.7926 8.51306C14.9358 7.19083 14.704 5.85498 14.1235 4.65837C13.543 3.46176 12.6374 2.45276 11.5102 1.74682C10.3831 1.04088 9.07994 0.666537 7.74997 0.666626ZM2.3333 7.74996C2.3333 6.31337 2.90398 4.93562 3.91981 3.9198C4.93563 2.90398 6.31338 2.33329 7.74997 2.33329C9.18656 2.33329 10.5643 2.90398 11.5801 3.9198C12.596 4.93562 13.1666 6.31337 13.1666 7.74996C13.1666 9.18655 12.596 10.5643 11.5801 11.5801C10.5643 12.5959 9.18656 13.1666 7.74997 13.1666C6.31338 13.1666 4.93563 12.5959 3.91981 11.5801C2.90398 10.5643 2.3333 9.18655 2.3333 7.74996Z" fill="#545454"/>
</svg>
