<svg width="73" height="63" viewBox="0 0 73 63" fill="none" xmlns="http://www.w3.org/2000/svg">
<path d="M43.7453 41.6954C45.612 41.1318 49.0104 39.5919 50.2318 38.4522C51.6401 37.2593 48.7189 35.9246 48.3723 35.7235C48.0257 35.5223 30.9925 27.0751 28.0216 25.7677C25.0507 24.4604 15.6431 27.2184 13.3651 28.4829C11.5083 29.5137 12.8204 30.2428 13.068 30.4439C13.3156 30.645 27.5043 38.5528 32.6044 40.9663C36.4666 42.794 40.0812 42.8016 43.7453 41.6954Z" fill="black" fill-opacity="0.1"/>
<path fill-rule="evenodd" clip-rule="evenodd" d="M30.2692 32.8365L32.1536 31.9627L32.154 31.9637C32.1661 31.9579 32.1783 31.9522 32.1905 31.9467C33.313 31.443 34.9142 32.5842 35.767 34.4956C36.6198 36.407 36.4013 38.3649 35.2788 38.8686C35.2634 38.8755 35.2479 38.8821 35.2323 38.8884L33.4152 39.7323L32.4068 37.5219C32.1416 37.1706 31.9015 36.7662 31.7023 36.3197C31.5186 35.9079 31.3846 35.4941 31.2987 35.093L30.2692 32.8365Z" fill="#1C1C1C"/>
<ellipse rx="2.22851" ry="3.78531" transform="matrix(-0.911976 0.409256 0.40762 0.913593 31.8666 36.2766)" fill="#1C1C1C"/>
<g filter="url(#filter0_i_517_7567)">
<ellipse rx="1.67147" ry="2.83912" transform="matrix(-0.911976 0.409256 0.40762 0.913593 31.8024 36.2786)" fill="url(#paint0_linear_517_7567)"/>
</g>
<g filter="url(#filter1_di_517_7567)">
<path fill-rule="evenodd" clip-rule="evenodd" d="M31.7722 35.4781C31.6521 35.4214 31.5324 35.4103 31.4294 35.4566C31.3993 35.4701 31.3719 35.4878 31.3473 35.5095L30.6283 34.2605C30.6921 34.2043 30.763 34.1581 30.841 34.1231C31.1201 33.9979 31.4467 34.0357 31.7722 34.202L31.7722 35.4781Z" fill="#4C4C4C"/>
</g>
<path fill-rule="evenodd" clip-rule="evenodd" d="M30.2703 32.7967L32.1546 31.9229L32.1548 31.9233C32.1664 31.9178 32.178 31.9123 32.1898 31.907C33.3122 31.4033 34.9135 32.5445 35.7663 34.456C36.6191 36.3674 36.4005 38.3253 35.2781 38.829C35.2669 38.834 35.2557 38.8388 35.2445 38.8435L33.4163 39.6925L32.4108 37.4885C32.1437 37.1358 31.902 36.7292 31.7016 36.2801C31.5167 35.8657 31.3822 35.4492 31.2963 35.0457L30.2703 32.7967Z" fill="#1C1C1C"/>
<path d="M29.8124 37.1888C30.6645 39.0987 32.2652 40.2387 33.3877 39.735C34.5101 39.2313 34.7292 37.2746 33.8771 35.3647C33.0249 33.4548 31.376 32.212 30.2536 32.7157C29.1311 33.2194 28.9602 35.2788 29.8124 37.1888Z" fill="#2D2C2C"/>
<g filter="url(#filter2_i_517_7567)">
<ellipse rx="1.56662" ry="2.73779" transform="matrix(-0.907872 0.419393 0.394561 0.918855 31.822 36.2785)" fill="url(#paint1_linear_517_7567)"/>
</g>
<g filter="url(#filter3_di_517_7567)">
<path fill-rule="evenodd" clip-rule="evenodd" d="M32.8515 35.738C32.4326 34.8035 31.6936 34.226 31.132 34.3749L31.5504 35.3306C31.8056 35.3158 32.1134 35.5685 32.3052 35.9635L32.8515 35.738Z" fill="#A9A8A8"/>
</g>
<path fill-rule="evenodd" clip-rule="evenodd" d="M16.1104 25.7156L17.7708 25.2862L17.7711 25.2873C17.7816 25.2843 17.7922 25.2816 17.8029 25.279C18.7894 25.0369 19.9206 26.2023 20.3294 27.8819C20.7382 29.5616 20.2698 31.1195 19.2832 31.3616C19.269 31.3651 19.2547 31.3683 19.2404 31.3712L17.6415 31.7855L17.1512 29.8417C16.9875 29.5165 16.8523 29.1516 16.7567 28.7586C16.6685 28.3961 16.6211 28.0393 16.611 27.7002L16.1104 25.7156Z" fill="#1C1C1C"/>
<ellipse rx="1.84046" ry="3.12575" transform="matrix(-0.970604 0.23817 0.236622 0.972219 16.8949 28.748)" fill="#1C1C1C"/>
<g filter="url(#filter4_i_517_7567)">
<ellipse rx="1.38041" ry="2.34442" transform="matrix(-0.970604 0.23817 0.236622 0.972219 16.8433 28.74)" fill="url(#paint2_linear_517_7567)"/>
</g>
<g filter="url(#filter5_di_517_7567)">
<path fill-rule="evenodd" clip-rule="evenodd" d="M16.9363 28.085C16.8471 28.021 16.7515 27.9942 16.6609 28.0164C16.6347 28.0229 16.61 28.0331 16.5869 28.0469L16.1885 26.9256C16.2487 26.8894 16.3133 26.8624 16.3819 26.8455C16.627 26.7854 16.8865 26.8645 17.126 27.0478L16.9363 28.085Z" fill="#4C4C4C"/>
</g>
<path fill-rule="evenodd" clip-rule="evenodd" d="M17.1457 29.8859C16.9818 29.5604 16.8464 29.1952 16.7507 28.8017C16.6623 28.4388 16.615 28.0815 16.6049 27.742L16.1048 25.7593L17.7653 25.33L17.7653 25.3303C17.7758 25.3274 17.7863 25.3247 17.7968 25.3221C18.7834 25.08 19.9146 26.2454 20.3234 27.925C20.7322 29.6047 20.2638 31.1626 19.2772 31.4047C19.2685 31.4068 19.2597 31.4088 19.2509 31.4108L17.6359 31.8293L17.1457 29.8859Z" fill="#1C1C1C"/>
<ellipse rx="1.86091" ry="3.16048" transform="matrix(-0.970604 0.23817 0.236622 0.972219 16.8894 28.7544)" fill="#2C2C2C"/>
<g filter="url(#filter6_i_517_7567)">
<g filter="url(#filter7_i_517_7567)">
<ellipse rx="1.29502" ry="2.26365" transform="matrix(-0.955947 0.291383 0.304388 0.953182 16.7794 28.9644)" fill="url(#paint3_linear_517_7567)"/>
</g>
<g filter="url(#filter8_di_517_7567)">
<path fill-rule="evenodd" clip-rule="evenodd" d="M17.6584 28.678C17.4214 27.8634 16.878 27.2906 16.3963 27.3298L16.6302 28.1609C16.8433 28.1847 17.069 28.4334 17.1816 28.7806L17.6584 28.678Z" fill="#A9A8A8"/>
</g>
</g>
<g filter="url(#filter9_ii_517_7567)">
<path fill-rule="evenodd" clip-rule="evenodd" d="M40.741 24.6457C40.862 24.7506 40.9873 24.8605 41.142 24.9019C41.8416 25.0891 47.7022 28.3026 48.98 29.5939C50.2235 30.8506 50.1545 31.6018 50.1225 31.9505C50.1179 32.0008 50.114 32.0428 50.115 32.0767C50.1199 32.2456 50.1186 32.5857 50.117 33.0183C50.1161 33.2731 50.115 33.56 50.115 33.863L50.115 34.8924C50.1126 34.9693 50.1129 35.0478 50.1133 35.1279C50.1147 35.4681 50.1164 35.838 49.9077 36.2433C49.6506 36.7428 48.409 38.5746 42.3839 40.4669C39.4487 41.3888 35.8318 39.5147 35.063 39.1164C35.0122 39.0901 34.9787 39.0394 34.9736 38.9824C34.9267 38.4543 34.8001 37.7284 34.6185 37.0099C34.6092 36.9779 34.6002 36.9458 34.5914 36.9137C34.3945 36.1958 34.1445 35.5008 33.8722 35.0353C33.1802 33.8524 31.7075 32.3935 30.5493 32.7932C29.235 33.2468 29.3359 35.1364 29.3612 35.5875C29.3686 35.7202 29.384 35.8087 29.3992 35.8961C29.403 35.9183 29.4049 35.94 29.4048 35.9609C29.4048 36.0118 29.4081 36.0634 29.4189 36.1131C29.4207 36.1212 29.4224 36.1298 29.4239 36.139C29.4516 36.3022 29.2653 36.406 29.1182 36.33C29.0817 36.3112 29.0405 36.304 28.9995 36.3004C28.9475 36.2957 28.8946 36.2811 28.8437 36.255L19.6787 31.5679C19.5303 31.492 19.3965 31.3962 19.282 31.2842C19.2365 31.2397 19.1864 31.1997 19.1298 31.1705C18.9853 31.0958 18.877 30.9576 18.8879 30.7953C18.8884 30.7872 18.8891 30.7792 18.8897 30.7711C18.8967 30.6902 18.8925 30.6086 18.879 30.5285C18.8667 30.4556 18.8604 30.3806 18.8606 30.3041C18.8627 29.504 18.8653 28.4757 18.2266 27.3584C17.6428 26.3373 16.7924 25.6613 16.0203 25.9035C15.2482 26.1458 15.0383 26.977 14.9962 27.44C14.9548 27.8946 14.9794 28.3118 14.9936 28.5538V28.5539C14.9994 28.6512 15.0034 28.7202 15.0009 28.7519C14.9919 28.8621 13.8802 27.9058 13.8088 27.5415C13.5913 26.4326 13.546 25.3942 13.6601 24.2687C13.6736 24.1354 13.6862 24.0012 13.6989 23.8664C13.7416 23.4132 13.7848 22.9545 13.8634 22.5108C13.8888 22.3672 13.9213 22.2418 13.9586 22.1571C13.968 22.1356 13.9772 22.113 13.9869 22.0892C14.0999 21.8115 14.2765 21.3779 15.6368 20.7698C17.5685 19.9062 22.8284 17.9838 23.0319 17.9388C23.5128 17.8327 24.1287 17.8783 24.6273 17.9152C24.9199 17.9369 25.172 17.9555 25.3328 17.9388C27.6557 17.6971 30.3485 18.0178 33.9017 19.8095C34.3771 20.0112 34.8472 20.2414 35.3025 20.5041C36.4395 21.1602 37.3974 21.8569 38.1942 22.4981C39.1246 23.2087 39.842 23.8476 40.357 24.3062C40.5007 24.4342 40.6286 24.5482 40.741 24.6457Z" fill="url(#paint4_linear_517_7567)"/>
</g>
<g filter="url(#filter10_ddi_517_7567)">
<path d="M31.5965 28.808C30.804 28.4801 30.2244 27.6929 29.4423 26.6587C28.5781 25.516 28.9737 23.7725 30.3034 23.2386L35.2207 21.2644C35.5219 21.1435 35.8473 21.1146 36.1345 21.2656C36.6001 21.5104 37.4706 22.0769 38.9588 23.3851C40.1076 24.3949 40.3375 24.6579 40.931 25.0577C41.0249 25.121 41.0086 25.2602 40.6637 25.5443C39.5644 26.45 33.5068 29.5985 31.5965 28.808Z" fill="url(#paint5_linear_517_7567)"/>
</g>
<g filter="url(#filter11_di_517_7567)">
<path d="M22.4856 22.0064C20.7875 21.4721 20.3505 21.4691 19.1782 21.403C18.3716 21.3576 17.0908 21.4768 16.9511 21.8399C16.8114 22.2029 18.3619 23.3432 19.0037 23.6982C19.3174 23.8717 30.1388 29.2929 29.7947 28.6522C29.3708 27.8628 27.4195 25.6079 26.7531 24.6871C25.642 23.152 24.1837 22.5406 22.4856 22.0064Z" fill="url(#paint6_linear_517_7567)"/>
</g>
<g filter="url(#filter12_di_517_7567)">
<path d="M18.6366 20.9375L25.7607 18.0369C25.7607 18.0369 25.6011 18.0931 24.7269 18.0803C24.4218 18.0758 17.0281 21.1141 16.974 21.1616L18.6366 20.9375Z" fill="url(#paint7_linear_517_7567)"/>
</g>
<g filter="url(#filter13_f_517_7567)">
<path d="M34.8698 32.7191C32.1338 31.4477 30.5965 29.8518 28.9482 28.3929C33.8566 29.8478 44.1303 33.0316 43.9693 33.2388C43.7681 33.4978 43.0302 33.805 40.5784 33.9703C38.1645 34.133 35.1831 32.8647 34.8698 32.7191Z" fill="url(#paint8_linear_517_7567)" fill-opacity="0.21"/>
</g>
<g filter="url(#filter14_f_517_7567)">
<path d="M45.4349 26.6506C45.2795 26.5228 43.3261 24.4991 41.8635 23.4916C43.0724 25.8501 45.8287 30.9763 46.085 30.9507C46.4055 30.9186 47.8716 30.6442 48.3034 29.647C48.7286 28.6652 45.6293 26.8104 45.4349 26.6506Z" fill="url(#paint9_linear_517_7567)" fill-opacity="0.13"/>
</g>
<g filter="url(#filter15_di_517_7567)">
<path d="M25.1351 28.951C25.1351 28.8878 25.0991 28.8301 25.0423 28.8025L24.2441 28.4144C24.1343 28.361 24.0068 28.441 24.0068 28.5631C24.0068 28.6267 24.0432 28.6847 24.1004 28.7124L24.8991 29.0992C25.0084 29.1521 25.1351 29.0725 25.1351 28.951Z" fill="#323232"/>
</g>
<g filter="url(#filter16_di_517_7567)">
<path d="M19.9005 26.6412C19.9005 26.578 19.8644 26.5203 19.8076 26.4927L19.0095 26.1046C18.8997 26.0512 18.7722 26.1311 18.7722 26.2533C18.7722 26.3169 18.8086 26.3749 18.8657 26.4026L19.6645 26.7893C19.7738 26.8423 19.9005 26.7627 19.9005 26.6412Z" fill="#323232"/>
</g>
<g filter="url(#filter17_f_517_7567)">
<path d="M27.161 34.8729L20.9205 31.8189C19.958 31.3478 19.226 30.4996 18.949 29.4643C18.8145 28.9614 18.709 28.5206 18.7046 28.3643C18.6929 27.9494 29.2582 32.974 28.8884 33.9128C28.6392 34.5451 27.7714 35.1717 27.161 34.8729Z" fill="url(#paint10_linear_517_7567)" fill-opacity="0.12"/>
</g>
<path d="M36.925 27.612L30.6891 23.0704C29.975 23.2637 28.3497 23.9911 28.04 24.1074C27.6387 24.2581 27.5721 24.3421 27.5721 24.3421C27.5721 24.4632 27.6339 24.5162 27.8287 24.7054C28.1079 24.9767 28.2261 25.1016 28.9179 25.9846C29.9142 27.2562 30.6722 28.4394 31.3991 28.7233C31.9774 28.9492 32.8792 29.1467 34.1627 28.7233C35.3099 28.3449 36.0161 27.9172 36.925 27.612Z" fill="#C4C4C4" fill-opacity="0.2"/>
<g filter="url(#filter18_ddii_517_7567)">
<path d="M49.2804 31.7006C49.5113 31.3889 49.5344 31.1211 49.511 30.7957C49.4885 30.4831 49.4883 30.1708 49.6464 30.4414C49.7932 30.6928 49.9693 31.0854 50.0023 31.4057C50.0237 31.6144 50.0103 31.72 49.9907 31.9127C49.9817 32.0008 49.8004 32.5388 49.8273 32.6549C49.8542 32.771 49.7951 33.5715 49.7992 33.6925C49.8032 33.8135 49.2979 34.7137 47.9704 35.5819C46.8677 36.3031 45.2843 36.7765 45.122 36.7999C44.9596 36.8232 44.8006 36.2788 44.6827 36.2487C44.3744 36.17 43.4634 36.5046 43.1234 36.59C42.7266 36.6898 41.8007 36.9197 40.7889 36.7898C39.5373 36.629 39.3458 36.4868 38.1952 35.8604C37.1908 35.3136 37.9123 34.4236 39.0207 34.7051C39.6801 34.8725 40.4244 35.0233 41.2063 35.1034C43.9684 35.3866 46.15 34.0743 46.4626 33.8856C47.7764 33.0926 48.4665 32.7994 49.2804 31.7006Z" fill="#272727"/>
</g>
<mask id="mask0_517_7567" style="mask-type:alpha" maskUnits="userSpaceOnUse" x="37" y="31" width="14" height="6">
<path d="M49.2799 31.695C49.3023 31.6647 49.3229 31.6339 49.3418 31.6028C49.5679 31.2302 50.07 30.9938 50.1361 31.4246C50.1576 31.6333 50.1525 31.7658 50.1331 31.9584C50.1242 32.0466 49.8004 32.5328 49.8274 32.6489C49.8544 32.7651 49.7958 33.5656 49.7999 33.6866C49.8041 33.8076 49.2994 34.7081 47.9724 35.5771C46.8701 36.2991 45.287 36.7735 45.1247 36.7969C44.9624 36.8204 44.803 36.2761 44.6851 36.2461C44.3767 36.1675 43.466 36.5027 43.126 36.5884C42.7293 36.6884 41.8036 36.9189 40.7916 36.7896C39.5399 36.6297 39.3483 36.4876 38.1974 35.8619C37.1927 35.3157 37.9135 34.4253 39.0221 34.7061C39.6816 34.8731 40.426 35.0233 41.208 35.103C43.9703 35.3843 46.151 34.0706 46.4635 33.8818C47.7768 33.088 48.4667 32.7943 49.2799 31.695Z" fill="#999999"/>
</mask>
<g mask="url(#mask0_517_7567)">
<g filter="url(#filter19_d_517_7567)">
<mask id="path-30-inside-1_517_7567" fill="white">
<path d="M42.4494 34.4105C42.4494 34.4105 42.9776 35.5741 41.286 35.8011C40.7774 35.8693 39.891 35.7952 39.31 35.3321C38.9907 35.0776 38.5498 34.3518 38.5498 34.3518L42.4494 34.4105Z"/>
</mask>
<path d="M42.4494 34.4105L45.1805 33.1707L44.3949 31.4401L42.4945 31.4115L42.4494 34.4105ZM41.286 35.8011L41.6848 38.7738L41.286 35.8011ZM39.31 35.3321L37.4406 37.6776L39.31 35.3321ZM38.5498 34.3518L38.595 31.3528L33.1689 31.271L35.9863 35.909L38.5498 34.3518ZM42.4494 34.4105C39.7182 35.6504 39.7175 35.6487 39.7167 35.647C39.7164 35.6464 39.7157 35.6447 39.7152 35.6436C39.7141 35.6413 39.7131 35.6391 39.7121 35.6368C39.7101 35.6323 39.7081 35.6278 39.7061 35.6234C39.7022 35.6144 39.6983 35.6056 39.6946 35.5968C39.687 35.5792 39.6798 35.5618 39.6728 35.5445C39.6589 35.5101 39.6459 35.4754 39.6336 35.44C39.6099 35.3712 39.5861 35.2906 39.5672 35.1983C39.5339 35.0359 39.4888 34.709 39.5913 34.2969C39.7096 33.8212 39.9906 33.3814 40.384 33.0869C40.7267 32.8304 40.9777 32.8162 40.8872 32.8283L41.6848 38.7738C42.4402 38.6725 43.2595 38.4278 43.9789 37.8892C44.7489 37.3128 45.2151 36.5395 45.4128 35.7445C45.5946 35.0132 45.5232 34.3812 45.4438 33.9935C45.4017 33.7885 45.3499 33.6153 45.3039 33.482C45.2805 33.4143 45.2577 33.3543 45.237 33.3028C45.2266 33.2769 45.2165 33.253 45.2071 33.231C45.2024 33.22 45.1978 33.2094 45.1934 33.1994C45.1911 33.1944 45.189 33.1895 45.1868 33.1847C45.1857 33.1823 45.1847 33.1799 45.1836 33.1776C45.1831 33.1764 45.1823 33.1747 45.1821 33.1741C45.1813 33.1724 45.1805 33.1707 42.4494 34.4105ZM40.8872 32.8283C40.9359 32.8218 40.9476 32.824 40.9284 32.8235C40.9122 32.823 40.895 32.8211 40.8842 32.819C40.8725 32.8168 40.8901 32.8187 40.9326 32.8362C40.9748 32.8535 41.0665 32.8966 41.1795 32.9866L37.4406 37.6776C38.2316 38.3081 39.1053 38.5873 39.7661 38.7127C40.436 38.8398 41.1081 38.8512 41.6848 38.7738L40.8872 32.8283ZM41.1795 32.9866C41.3368 33.112 41.4021 33.2012 41.3639 33.1552C41.3455 33.1331 41.3103 33.0875 41.2627 33.0199C41.2178 32.9561 41.1765 32.8936 41.1463 32.8466C41.1317 32.8239 41.1208 32.8066 41.1148 32.797C41.1118 32.7922 41.1101 32.7894 41.1098 32.7889C41.1096 32.7886 41.1098 32.7889 41.1104 32.7899C41.1107 32.7903 41.1111 32.791 41.1115 32.7917C41.1118 32.7921 41.1121 32.7926 41.1123 32.793C41.1125 32.7933 41.1126 32.7935 41.1128 32.7938C41.1129 32.7939 41.113 32.7941 41.113 32.7942C41.1131 32.7944 41.1133 32.7946 38.5498 34.3518C35.9863 35.909 35.9865 35.9092 35.9866 35.9095C35.9866 35.9095 35.9868 35.9097 35.9869 35.9099C35.987 35.9102 35.9872 35.9105 35.9874 35.9108C35.9878 35.9115 35.9882 35.9122 35.9887 35.9129C35.9896 35.9144 35.9906 35.9161 35.9917 35.9179C35.994 35.9216 35.9967 35.9261 35.9999 35.9312C36.0062 35.9414 36.0142 35.9545 36.0239 35.97C36.0433 36.001 36.0694 36.0425 36.1011 36.0918C36.1635 36.1888 36.2524 36.3237 36.3576 36.4732C36.4946 36.6678 36.9038 37.2498 37.4406 37.6776L41.1795 32.9866ZM38.5046 37.3509L42.4042 37.4096L42.4945 31.4115L38.595 31.3528L38.5046 37.3509Z" fill="white" fill-opacity="0.9" mask="url(#path-30-inside-1_517_7567)"/>
</g>
<g filter="url(#filter20_d_517_7567)">
<mask id="path-32-inside-2_517_7567" fill="white">
<path d="M49.4765 30.4046C49.4765 30.4046 49.9125 30.9762 49.6107 31.6257C49.5199 31.821 49.3365 31.9224 49.1529 31.7835C49.0162 31.6802 48.575 31.7706 48.575 31.7706L49.4765 30.4046Z"/>
</mask>
<path d="M49.4765 30.4046L51.8613 28.5855L49.2997 25.2273L46.9731 28.7525L49.4765 30.4046ZM49.6107 31.6257L52.3308 32.8895L49.6107 31.6257ZM49.1529 31.7835L47.3436 34.1758L49.1529 31.7835ZM48.575 31.7706L46.0716 30.1185L42.0824 36.1631L49.1772 34.7089L48.575 31.7706ZM49.4765 30.4046C47.0917 32.2237 47.0909 32.2227 47.0901 32.2216C47.0899 32.2213 47.0891 32.2203 47.0886 32.2196C47.0875 32.2182 47.0865 32.2169 47.0855 32.2155C47.0834 32.2128 47.0814 32.2101 47.0794 32.2074C47.0754 32.2021 47.0714 32.1968 47.0675 32.1915C47.0597 32.181 47.0522 32.1707 47.0449 32.1605C47.0303 32.1402 47.0166 32.1204 47.0036 32.101C46.9778 32.0626 46.9536 32.0238 46.9311 31.9841C46.8885 31.9089 46.8391 31.8086 46.7984 31.6806C46.7151 31.4187 46.636 30.9097 46.8905 30.3619L52.3308 32.8895C52.8871 31.6922 52.7409 30.5726 52.5151 29.8625C52.4031 29.5105 52.2636 29.2266 52.1487 29.024C52.09 28.9206 52.0342 28.8321 51.9857 28.7598C51.9614 28.7235 51.9385 28.6908 51.9177 28.6618C51.9073 28.6473 51.8974 28.6337 51.888 28.621C51.8833 28.6147 51.8787 28.6085 51.8742 28.6026C51.872 28.5996 51.8698 28.5967 51.8677 28.5939C51.8666 28.5925 51.8655 28.5911 51.8644 28.5897C51.8639 28.589 51.8631 28.5879 51.8629 28.5876C51.8621 28.5865 51.8613 28.5855 49.4765 30.4046ZM46.8905 30.3619C47.06 29.9971 47.4652 29.3836 48.2924 29.0492C49.2902 28.6458 50.3021 28.8921 50.9622 29.3913L47.3436 34.1758C48.1873 34.8139 49.3827 35.0789 50.5408 34.6107C51.5283 34.2115 52.0706 33.4496 52.3308 32.8895L46.8905 30.3619ZM50.9622 29.3913C50.2459 28.8496 49.4996 28.773 49.3034 28.7534C48.9984 28.7229 48.7369 28.736 48.5853 28.7475C48.4177 28.7603 48.2743 28.7802 48.1786 28.7953C48.1284 28.8033 48.0852 28.8108 48.051 28.8171C48.0338 28.8203 48.0186 28.8232 48.0055 28.8257C47.999 28.827 47.993 28.8282 47.9875 28.8293C47.9848 28.8298 47.9822 28.8304 47.9797 28.8309C47.9785 28.8311 47.9773 28.8314 47.9761 28.8316C47.9755 28.8317 47.975 28.8318 47.9744 28.8319C47.9741 28.832 47.9737 28.8321 47.9736 28.8321C47.9732 28.8322 47.9727 28.8323 48.575 31.7706C49.1772 34.7089 49.1768 34.709 49.1764 34.7091C49.1763 34.7091 49.1759 34.7092 49.1756 34.7092C49.1751 34.7093 49.1745 34.7095 49.174 34.7096C49.1729 34.7098 49.1719 34.71 49.1709 34.7102C49.1688 34.7106 49.1669 34.711 49.165 34.7114C49.1612 34.7121 49.1577 34.7128 49.1544 34.7135C49.1479 34.7147 49.1423 34.7158 49.1374 34.7167C49.1279 34.7185 49.1202 34.7198 49.1135 34.7208C49.1048 34.7222 49.0803 34.726 49.04 34.7291C49.0159 34.7309 48.8902 34.7408 48.7064 34.7224C48.611 34.7129 48.4448 34.6905 48.2398 34.63C48.0461 34.5729 47.7048 34.449 47.3436 34.1758L50.9622 29.3913ZM51.0783 33.4227L51.9798 32.0567L46.9731 28.7525L46.0716 30.1185L51.0783 33.4227Z" fill="white" fill-opacity="0.9" mask="url(#path-32-inside-2_517_7567)"/>
</g>
</g>
<defs>
<filter id="filter0_i_517_7567" x="29.8884" y="33.5955" width="3.82788" height="5.36627" filterUnits="userSpaceOnUse" color-interpolation-filters="sRGB">
<feFlood flood-opacity="0" result="BackgroundImageFix"/>
<feBlend mode="normal" in="SourceGraphic" in2="BackgroundImageFix" result="shape"/>
<feColorMatrix in="SourceAlpha" type="matrix" values="0 0 0 0 0 0 0 0 0 0 0 0 0 0 0 0 0 0 127 0" result="hardAlpha"/>
<feMorphology radius="1.0079" operator="erode" in="SourceAlpha" result="effect1_innerShadow_517_7567"/>
<feOffset/>
<feGaussianBlur stdDeviation="0.503952"/>
<feComposite in2="hardAlpha" operator="arithmetic" k2="-1" k3="1"/>
<feColorMatrix type="matrix" values="0 0 0 0 0 0 0 0 0 0 0 0 0 0 0 0 0 0 0.25 0"/>
<feBlend mode="normal" in2="shape" result="effect1_innerShadow_517_7567"/>
</filter>
<filter id="filter1_di_517_7567" x="27.6045" y="33.8473" width="4.7725" height="3.67796" filterUnits="userSpaceOnUse" color-interpolation-filters="sRGB">
<feFlood flood-opacity="0" result="BackgroundImageFix"/>
<feColorMatrix in="SourceAlpha" type="matrix" values="0 0 0 0 0 0 0 0 0 0 0 0 0 0 0 0 0 0 127 0" result="hardAlpha"/>
<feOffset dy="0.403162"/>
<feGaussianBlur stdDeviation="0.302371"/>
<feColorMatrix type="matrix" values="0 0 0 0 1 0 0 0 0 1 0 0 0 0 1 0 0 0 0.41 0"/>
<feBlend mode="normal" in2="BackgroundImageFix" result="effect1_dropShadow_517_7567"/>
<feBlend mode="normal" in="SourceGraphic" in2="effect1_dropShadow_517_7567" result="shape"/>
<feColorMatrix in="SourceAlpha" type="matrix" values="0 0 0 0 0 0 0 0 0 0 0 0 0 0 0 0 0 0 127 0" result="hardAlpha"/>
<feOffset dx="-3.02371" dy="2.01581"/>
<feGaussianBlur stdDeviation="1.51186"/>
<feComposite in2="hardAlpha" operator="arithmetic" k2="-1" k3="1"/>
<feColorMatrix type="matrix" values="0 0 0 0 0 0 0 0 0 0 0 0 0 0 0 0 0 0 0.25 0"/>
<feBlend mode="normal" in2="shape" result="effect2_innerShadow_517_7567"/>
</filter>
<filter id="filter2_i_517_7567" x="30.0359" y="33.6779" width="3.57227" height="5.20129" filterUnits="userSpaceOnUse" color-interpolation-filters="sRGB">
<feFlood flood-opacity="0" result="BackgroundImageFix"/>
<feBlend mode="normal" in="SourceGraphic" in2="BackgroundImageFix" result="shape"/>
<feColorMatrix in="SourceAlpha" type="matrix" values="0 0 0 0 0 0 0 0 0 0 0 0 0 0 0 0 0 0 127 0" result="hardAlpha"/>
<feMorphology radius="2.49949" operator="erode" in="SourceAlpha" result="effect1_innerShadow_517_7567"/>
<feOffset/>
<feGaussianBlur stdDeviation="1.24975"/>
<feComposite in2="hardAlpha" operator="arithmetic" k2="-1" k3="1"/>
<feColorMatrix type="matrix" values="0 0 0 0 0 0 0 0 0 0 0 0 0 0 0 0 0 0 0.25 0"/>
<feBlend mode="normal" in2="shape" result="effect1_innerShadow_517_7567"/>
</filter>
<filter id="filter3_di_517_7567" x="27.9355" y="34.1385" width="5.98164" height="3.95612" filterUnits="userSpaceOnUse" color-interpolation-filters="sRGB">
<feFlood flood-opacity="0" result="BackgroundImageFix"/>
<feColorMatrix in="SourceAlpha" type="matrix" values="0 0 0 0 0 0 0 0 0 0 0 0 0 0 0 0 0 0 127 0" result="hardAlpha"/>
<feOffset dy="0.852431"/>
<feGaussianBlur stdDeviation="0.53277"/>
<feColorMatrix type="matrix" values="0 0 0 0 1 0 0 0 0 1 0 0 0 0 1 0 0 0 0.59 0"/>
<feBlend mode="normal" in2="BackgroundImageFix" result="effect1_dropShadow_517_7567"/>
<feBlend mode="normal" in="SourceGraphic" in2="effect1_dropShadow_517_7567" result="shape"/>
<feColorMatrix in="SourceAlpha" type="matrix" values="0 0 0 0 0 0 0 0 0 0 0 0 0 0 0 0 0 0 127 0" result="hardAlpha"/>
<feOffset dx="-3.19662" dy="2.13108"/>
<feGaussianBlur stdDeviation="1.59831"/>
<feComposite in2="hardAlpha" operator="arithmetic" k2="-1" k3="1"/>
<feColorMatrix type="matrix" values="0 0 0 0 0 0 0 0 0 0 0 0 0 0 0 0 0 0 0.25 0"/>
<feBlend mode="normal" in2="shape" result="effect2_innerShadow_517_7567"/>
</filter>
<filter id="filter4_i_517_7567" x="15.3928" y="26.4368" width="2.90112" height="4.60638" filterUnits="userSpaceOnUse" color-interpolation-filters="sRGB">
<feFlood flood-opacity="0" result="BackgroundImageFix"/>
<feBlend mode="normal" in="SourceGraphic" in2="BackgroundImageFix" result="shape"/>
<feColorMatrix in="SourceAlpha" type="matrix" values="0 0 0 0 0 0 0 0 0 0 0 0 0 0 0 0 0 0 127 0" result="hardAlpha"/>
<feMorphology radius="0.83234" operator="erode" in="SourceAlpha" result="effect1_innerShadow_517_7567"/>
<feOffset/>
<feGaussianBlur stdDeviation="0.41617"/>
<feComposite in2="hardAlpha" operator="arithmetic" k2="-1" k3="1"/>
<feColorMatrix type="matrix" values="0 0 0 0 0 0 0 0 0 0 0 0 0 0 0 0 0 0 0.25 0"/>
<feBlend mode="normal" in2="shape" result="effect1_innerShadow_517_7567"/>
</filter>
<filter id="filter5_di_517_7567" x="13.6915" y="26.6592" width="3.93393" height="3.09049" filterUnits="userSpaceOnUse" color-interpolation-filters="sRGB">
<feFlood flood-opacity="0" result="BackgroundImageFix"/>
<feColorMatrix in="SourceAlpha" type="matrix" values="0 0 0 0 0 0 0 0 0 0 0 0 0 0 0 0 0 0 127 0" result="hardAlpha"/>
<feOffset dy="0.332936"/>
<feGaussianBlur stdDeviation="0.249702"/>
<feColorMatrix type="matrix" values="0 0 0 0 1 0 0 0 0 1 0 0 0 0 1 0 0 0 0.41 0"/>
<feBlend mode="normal" in2="BackgroundImageFix" result="effect1_dropShadow_517_7567"/>
<feBlend mode="normal" in="SourceGraphic" in2="effect1_dropShadow_517_7567" result="shape"/>
<feColorMatrix in="SourceAlpha" type="matrix" values="0 0 0 0 0 0 0 0 0 0 0 0 0 0 0 0 0 0 127 0" result="hardAlpha"/>
<feOffset dx="-2.49702" dy="1.66468"/>
<feGaussianBlur stdDeviation="1.24851"/>
<feComposite in2="hardAlpha" operator="arithmetic" k2="-1" k3="1"/>
<feColorMatrix type="matrix" values="0 0 0 0 0 0 0 0 0 0 0 0 0 0 0 0 0 0 0.25 0"/>
<feBlend mode="normal" in2="shape" result="effect2_innerShadow_517_7567"/>
</filter>
<filter id="filter6_i_517_7567" x="15.3623" y="26.7736" width="2.83423" height="4.38159" filterUnits="userSpaceOnUse" color-interpolation-filters="sRGB">
<feFlood flood-opacity="0" result="BackgroundImageFix"/>
<feBlend mode="normal" in="SourceGraphic" in2="BackgroundImageFix" result="shape"/>
<feColorMatrix in="SourceAlpha" type="matrix" values="0 0 0 0 0 0 0 0 0 0 0 0 0 0 0 0 0 0 127 0" result="hardAlpha"/>
<feMorphology radius="2.49949" operator="erode" in="SourceAlpha" result="effect1_innerShadow_517_7567"/>
<feOffset/>
<feGaussianBlur stdDeviation="1.24975"/>
<feComposite in2="hardAlpha" operator="arithmetic" k2="-1" k3="1"/>
<feColorMatrix type="matrix" values="0 0 0 0 0 0 0 0 0 0 0 0 0 0 0 0 0 0 0.25 0"/>
<feBlend mode="normal" in2="shape" result="effect1_innerShadow_517_7567"/>
</filter>
<filter id="filter7_i_517_7567" x="15.3623" y="26.7736" width="2.83423" height="4.38159" filterUnits="userSpaceOnUse" color-interpolation-filters="sRGB">
<feFlood flood-opacity="0" result="BackgroundImageFix"/>
<feBlend mode="normal" in="SourceGraphic" in2="BackgroundImageFix" result="shape"/>
<feColorMatrix in="SourceAlpha" type="matrix" values="0 0 0 0 0 0 0 0 0 0 0 0 0 0 0 0 0 0 127 0" result="hardAlpha"/>
<feMorphology radius="0.749096" operator="erode" in="SourceAlpha" result="effect1_innerShadow_517_7567"/>
<feOffset/>
<feGaussianBlur stdDeviation="0.374548"/>
<feComposite in2="hardAlpha" operator="arithmetic" k2="-1" k3="1"/>
<feColorMatrix type="matrix" values="0 0 0 0 0 0 0 0 0 0 0 0 0 0 0 0 0 0 0.25 0"/>
<feBlend mode="normal" in2="shape" result="effect1_innerShadow_517_7567"/>
</filter>
<filter id="filter8_di_517_7567" x="13.1996" y="27.1148" width="5.52436" height="3.79688" filterUnits="userSpaceOnUse" color-interpolation-filters="sRGB">
<feFlood flood-opacity="0" result="BackgroundImageFix"/>
<feColorMatrix in="SourceAlpha" type="matrix" values="0 0 0 0 0 0 0 0 0 0 0 0 0 0 0 0 0 0 127 0" result="hardAlpha"/>
<feOffset dy="0.852432"/>
<feGaussianBlur stdDeviation="0.53277"/>
<feColorMatrix type="matrix" values="0 0 0 0 1 0 0 0 0 1 0 0 0 0 1 0 0 0 0.59 0"/>
<feBlend mode="normal" in2="BackgroundImageFix" result="effect1_dropShadow_517_7567"/>
<feBlend mode="normal" in="SourceGraphic" in2="effect1_dropShadow_517_7567" result="shape"/>
<feColorMatrix in="SourceAlpha" type="matrix" values="0 0 0 0 0 0 0 0 0 0 0 0 0 0 0 0 0 0 127 0" result="hardAlpha"/>
<feOffset dx="-3.19662" dy="2.13108"/>
<feGaussianBlur stdDeviation="1.59831"/>
<feComposite in2="hardAlpha" operator="arithmetic" k2="-1" k3="1"/>
<feColorMatrix type="matrix" values="0 0 0 0 0 0 0 0 0 0 0 0 0 0 0 0 0 0 0.25 0"/>
<feBlend mode="normal" in2="shape" result="effect2_innerShadow_517_7567"/>
</filter>
<filter id="filter9_ii_517_7567" x="13.5994" y="5.47759" width="45.8291" height="35.2413" filterUnits="userSpaceOnUse" color-interpolation-filters="sRGB">
<feFlood flood-opacity="0" result="BackgroundImageFix"/>
<feBlend mode="normal" in="SourceGraphic" in2="BackgroundImageFix" result="shape"/>
<feColorMatrix in="SourceAlpha" type="matrix" values="0 0 0 0 0 0 0 0 0 0 0 0 0 0 0 0 0 0 127 0" result="hardAlpha"/>
<feOffset dx="9.29293" dy="-12.3906"/>
<feGaussianBlur stdDeviation="37.1717"/>
<feComposite in2="hardAlpha" operator="arithmetic" k2="-1" k3="1"/>
<feColorMatrix type="matrix" values="0 0 0 0 0 0 0 0 0 0 0 0 0 0 0 0 0 0 0.07 0"/>
<feBlend mode="normal" in2="shape" result="effect1_innerShadow_517_7567"/>
<feColorMatrix in="SourceAlpha" type="matrix" values="0 0 0 0 0 0 0 0 0 0 0 0 0 0 0 0 0 0 127 0" result="hardAlpha"/>
<feOffset dy="-1.54882"/>
<feGaussianBlur stdDeviation="3.09764"/>
<feComposite in2="hardAlpha" operator="arithmetic" k2="-1" k3="1"/>
<feColorMatrix type="matrix" values="0 0 0 0 0 0 0 0 0 0 0 0 0 0 0 0 0 0 0.09 0"/>
<feBlend mode="normal" in2="effect1_innerShadow_517_7567" result="effect2_innerShadow_517_7567"/>
</filter>
<filter id="filter10_ddi_517_7567" x="24.952" y="18.1391" width="18.044" height="13.8188" filterUnits="userSpaceOnUse" color-interpolation-filters="sRGB">
<feFlood flood-opacity="0" result="BackgroundImageFix"/>
<feColorMatrix in="SourceAlpha" type="matrix" values="0 0 0 0 0 0 0 0 0 0 0 0 0 0 0 0 0 0 127 0" result="hardAlpha"/>
<feOffset dx="-2.01581" dy="1.0079"/>
<feGaussianBlur stdDeviation="1.0079"/>
<feColorMatrix type="matrix" values="0 0 0 0 1 0 0 0 0 1 0 0 0 0 1 0 0 0 0.28 0"/>
<feBlend mode="normal" in2="BackgroundImageFix" result="effect1_dropShadow_517_7567"/>
<feColorMatrix in="SourceAlpha" type="matrix" values="0 0 0 0 0 0 0 0 0 0 0 0 0 0 0 0 0 0 127 0" result="hardAlpha"/>
<feOffset dy="-1.0079"/>
<feGaussianBlur stdDeviation="1.0079"/>
<feColorMatrix type="matrix" values="0 0 0 0 1 0 0 0 0 1 0 0 0 0 1 0 0 0 0.56 0"/>
<feBlend mode="normal" in2="effect1_dropShadow_517_7567" result="effect2_dropShadow_517_7567"/>
<feBlend mode="normal" in="SourceGraphic" in2="effect2_dropShadow_517_7567" result="shape"/>
<feColorMatrix in="SourceAlpha" type="matrix" values="0 0 0 0 0 0 0 0 0 0 0 0 0 0 0 0 0 0 127 0" result="hardAlpha"/>
<feOffset dx="-1.0079" dy="3.02371"/>
<feGaussianBlur stdDeviation="1.51186"/>
<feComposite in2="hardAlpha" operator="arithmetic" k2="-1" k3="1"/>
<feColorMatrix type="matrix" values="0 0 0 0 0 0 0 0 0 0 0 0 0 0 0 0 0 0 0.75 0"/>
<feBlend mode="normal" in2="shape" result="effect3_innerShadow_517_7567"/>
</filter>
<filter id="filter11_di_517_7567" x="12.9105" y="21.3938" width="17.9345" height="11.3426" filterUnits="userSpaceOnUse" color-interpolation-filters="sRGB">
<feFlood flood-opacity="0" result="BackgroundImageFix"/>
<feColorMatrix in="SourceAlpha" type="matrix" values="0 0 0 0 0 0 0 0 0 0 0 0 0 0 0 0 0 0 127 0" result="hardAlpha"/>
<feOffset dy="1.0423"/>
<feGaussianBlur stdDeviation="0.521152"/>
<feColorMatrix type="matrix" values="0 0 0 0 0.925374 0 0 0 0 0.925374 0 0 0 0 0.925374 0 0 0 0.37 0"/>
<feBlend mode="normal" in2="BackgroundImageFix" result="effect1_dropShadow_517_7567"/>
<feBlend mode="normal" in="SourceGraphic" in2="effect1_dropShadow_517_7567" result="shape"/>
<feColorMatrix in="SourceAlpha" type="matrix" values="0 0 0 0 0 0 0 0 0 0 0 0 0 0 0 0 0 0 127 0" result="hardAlpha"/>
<feOffset dx="-4.03162" dy="5.03952"/>
<feGaussianBlur stdDeviation="2.01581"/>
<feComposite in2="hardAlpha" operator="arithmetic" k2="-1" k3="1"/>
<feColorMatrix type="matrix" values="0 0 0 0 0 0 0 0 0 0 0 0 0 0 0 0 0 0 0.8 0"/>
<feBlend mode="normal" in2="shape" result="effect2_innerShadow_517_7567"/>
</filter>
<filter id="filter12_di_517_7567" x="12.9425" y="18.0369" width="13.8605" height="7.15637" filterUnits="userSpaceOnUse" color-interpolation-filters="sRGB">
<feFlood flood-opacity="0" result="BackgroundImageFix"/>
<feColorMatrix in="SourceAlpha" type="matrix" values="0 0 0 0 0 0 0 0 0 0 0 0 0 0 0 0 0 0 127 0" result="hardAlpha"/>
<feOffset dy="1.0423"/>
<feGaussianBlur stdDeviation="0.521152"/>
<feColorMatrix type="matrix" values="0 0 0 0 0.925374 0 0 0 0 0.925374 0 0 0 0 0.925374 0 0 0 0.37 0"/>
<feBlend mode="normal" in2="BackgroundImageFix" result="effect1_dropShadow_517_7567"/>
<feBlend mode="normal" in="SourceGraphic" in2="effect1_dropShadow_517_7567" result="shape"/>
<feColorMatrix in="SourceAlpha" type="matrix" values="0 0 0 0 0 0 0 0 0 0 0 0 0 0 0 0 0 0 127 0" result="hardAlpha"/>
<feOffset dx="-4.03162" dy="5.03952"/>
<feGaussianBlur stdDeviation="2.01581"/>
<feComposite in2="hardAlpha" operator="arithmetic" k2="-1" k3="1"/>
<feColorMatrix type="matrix" values="0 0 0 0 0 0 0 0 0 0 0 0 0 0 0 0 0 0 0.8 0"/>
<feBlend mode="normal" in2="shape" result="effect2_innerShadow_517_7567"/>
</filter>
<filter id="filter13_f_517_7567" x="0.72691" y="0.171612" width="71.4656" height="62.0343" filterUnits="userSpaceOnUse" color-interpolation-filters="sRGB">
<feFlood flood-opacity="0" result="BackgroundImageFix"/>
<feBlend mode="normal" in="SourceGraphic" in2="BackgroundImageFix" result="shape"/>
<feGaussianBlur stdDeviation="14.1107" result="effect1_foregroundBlur_517_7567"/>
</filter>
<filter id="filter14_f_517_7567" x="23.7212" y="5.34935" width="42.7645" height="43.7437" filterUnits="userSpaceOnUse" color-interpolation-filters="sRGB">
<feFlood flood-opacity="0" result="BackgroundImageFix"/>
<feBlend mode="normal" in="SourceGraphic" in2="BackgroundImageFix" result="shape"/>
<feGaussianBlur stdDeviation="9.07114" result="effect1_foregroundBlur_517_7567"/>
</filter>
<filter id="filter15_di_517_7567" x="23.5069" y="27.3978" width="2.12821" height="4.21749" filterUnits="userSpaceOnUse" color-interpolation-filters="sRGB">
<feFlood flood-opacity="0" result="BackgroundImageFix"/>
<feColorMatrix in="SourceAlpha" type="matrix" values="0 0 0 0 0 0 0 0 0 0 0 0 0 0 0 0 0 0 127 0" result="hardAlpha"/>
<feOffset dy="-0.499898"/>
<feGaussianBlur stdDeviation="0.249949"/>
<feColorMatrix type="matrix" values="0 0 0 0 0.78755 0 0 0 0 0.78755 0 0 0 0 0.78755 0 0 0 0.19 0"/>
<feBlend mode="normal" in2="BackgroundImageFix" result="effect1_dropShadow_517_7567"/>
<feBlend mode="normal" in="SourceGraphic" in2="effect1_dropShadow_517_7567" result="shape"/>
<feColorMatrix in="SourceAlpha" type="matrix" values="0 0 0 0 0 0 0 0 0 0 0 0 0 0 0 0 0 0 127 0" result="hardAlpha"/>
<feOffset dy="2.49949"/>
<feGaussianBlur stdDeviation="1.24975"/>
<feComposite in2="hardAlpha" operator="arithmetic" k2="-1" k3="1"/>
<feColorMatrix type="matrix" values="0 0 0 0 0 0 0 0 0 0 0 0 0 0 0 0 0 0 0.74 0"/>
<feBlend mode="normal" in2="shape" result="effect2_innerShadow_517_7567"/>
</filter>
<filter id="filter16_di_517_7567" x="18.2723" y="25.088" width="2.12821" height="4.21749" filterUnits="userSpaceOnUse" color-interpolation-filters="sRGB">
<feFlood flood-opacity="0" result="BackgroundImageFix"/>
<feColorMatrix in="SourceAlpha" type="matrix" values="0 0 0 0 0 0 0 0 0 0 0 0 0 0 0 0 0 0 127 0" result="hardAlpha"/>
<feOffset dy="-0.499898"/>
<feGaussianBlur stdDeviation="0.249949"/>
<feColorMatrix type="matrix" values="0 0 0 0 0.78755 0 0 0 0 0.78755 0 0 0 0 0.78755 0 0 0 0.19 0"/>
<feBlend mode="normal" in2="BackgroundImageFix" result="effect1_dropShadow_517_7567"/>
<feBlend mode="normal" in="SourceGraphic" in2="effect1_dropShadow_517_7567" result="shape"/>
<feColorMatrix in="SourceAlpha" type="matrix" values="0 0 0 0 0 0 0 0 0 0 0 0 0 0 0 0 0 0 127 0" result="hardAlpha"/>
<feOffset dy="2.49949"/>
<feGaussianBlur stdDeviation="1.24975"/>
<feComposite in2="hardAlpha" operator="arithmetic" k2="-1" k3="1"/>
<feColorMatrix type="matrix" values="0 0 0 0 0 0 0 0 0 0 0 0 0 0 0 0 0 0 0.74 0"/>
<feBlend mode="normal" in2="shape" result="effect2_innerShadow_517_7567"/>
</filter>
<filter id="filter17_f_517_7567" x="12.6572" y="22.2926" width="22.2882" height="18.7045" filterUnits="userSpaceOnUse" color-interpolation-filters="sRGB">
<feFlood flood-opacity="0" result="BackgroundImageFix"/>
<feBlend mode="normal" in="SourceGraphic" in2="BackgroundImageFix" result="shape"/>
<feGaussianBlur stdDeviation="3.02371" result="effect1_foregroundBlur_517_7567"/>
</filter>
<filter id="filter18_ddii_517_7567" x="36.4621" y="28.4565" width="14.8056" height="17.0193" filterUnits="userSpaceOnUse" color-interpolation-filters="sRGB">
<feFlood flood-opacity="0" result="BackgroundImageFix"/>
<feColorMatrix in="SourceAlpha" type="matrix" values="0 0 0 0 0 0 0 0 0 0 0 0 0 0 0 0 0 0 127 0" result="hardAlpha"/>
<feOffset dy="0.94086"/>
<feGaussianBlur stdDeviation="0.62724"/>
<feColorMatrix type="matrix" values="0 0 0 0 0 0 0 0 0 0 0 0 0 0 0 0 0 0 0.57 0"/>
<feBlend mode="normal" in2="BackgroundImageFix" result="effect1_dropShadow_517_7567"/>
<feColorMatrix in="SourceAlpha" type="matrix" values="0 0 0 0 0 0 0 0 0 0 0 0 0 0 0 0 0 0 127 0" result="hardAlpha"/>
<feOffset dy="-0.62724"/>
<feGaussianBlur stdDeviation="0.62724"/>
<feColorMatrix type="matrix" values="0 0 0 0 0 0 0 0 0 0 0 0 0 0 0 0 0 0 1 0"/>
<feBlend mode="normal" in2="effect1_dropShadow_517_7567" result="effect2_dropShadow_517_7567"/>
<feBlend mode="normal" in="SourceGraphic" in2="effect2_dropShadow_517_7567" result="shape"/>
<feColorMatrix in="SourceAlpha" type="matrix" values="0 0 0 0 0 0 0 0 0 0 0 0 0 0 0 0 0 0 127 0" result="hardAlpha"/>
<feOffset dy="8.64724"/>
<feGaussianBlur stdDeviation="8.81247"/>
<feComposite in2="hardAlpha" operator="arithmetic" k2="-1" k3="1"/>
<feColorMatrix type="matrix" values="0 0 0 0 0 0 0 0 0 0 0 0 0 0 0 0 0 0 1 0"/>
<feBlend mode="normal" in2="shape" result="effect3_innerShadow_517_7567"/>
<feColorMatrix in="SourceAlpha" type="matrix" values="0 0 0 0 0 0 0 0 0 0 0 0 0 0 0 0 0 0 127 0" result="hardAlpha"/>
<feOffset dy="-0.942296"/>
<feGaussianBlur stdDeviation="0.942296"/>
<feComposite in2="hardAlpha" operator="arithmetic" k2="-1" k3="1"/>
<feColorMatrix type="matrix" values="0 0 0 0 0 0 0 0 0 0 0 0 0 0 0 0 0 0 1 0"/>
<feBlend mode="normal" in2="effect3_innerShadow_517_7567" result="effect4_innerShadow_517_7567"/>
</filter>
<filter id="filter19_d_517_7567" x="38.3077" y="34.3518" width="6.46141" height="3.95506" filterUnits="userSpaceOnUse" color-interpolation-filters="sRGB">
<feFlood flood-opacity="0" result="BackgroundImageFix"/>
<feColorMatrix in="SourceAlpha" type="matrix" values="0 0 0 0 0 0 0 0 0 0 0 0 0 0 0 0 0 0 127 0" result="hardAlpha"/>
<feOffset dx="0.999797" dy="1.24194"/>
<feGaussianBlur stdDeviation="0.620968"/>
<feColorMatrix type="matrix" values="0 0 0 0 1 0 0 0 0 1 0 0 0 0 1 0 0 0 0.24 0"/>
<feBlend mode="normal" in2="BackgroundImageFix" result="effect1_dropShadow_517_7567"/>
<feBlend mode="normal" in="SourceGraphic" in2="effect1_dropShadow_517_7567" result="shape"/>
</filter>
<filter id="filter20_d_517_7567" x="48.3328" y="30.4046" width="3.62596" height="3.92711" filterUnits="userSpaceOnUse" color-interpolation-filters="sRGB">
<feFlood flood-opacity="0" result="BackgroundImageFix"/>
<feColorMatrix in="SourceAlpha" type="matrix" values="0 0 0 0 0 0 0 0 0 0 0 0 0 0 0 0 0 0 127 0" result="hardAlpha"/>
<feOffset dx="0.999797" dy="1.24194"/>
<feGaussianBlur stdDeviation="0.620968"/>
<feColorMatrix type="matrix" values="0 0 0 0 1 0 0 0 0 1 0 0 0 0 1 0 0 0 0.24 0"/>
<feBlend mode="normal" in2="BackgroundImageFix" result="effect1_dropShadow_517_7567"/>
<feBlend mode="normal" in="SourceGraphic" in2="effect1_dropShadow_517_7567" result="shape"/>
</filter>
<linearGradient id="paint0_linear_517_7567" x1="3.94262" y1="4.33101" x2="4.1389" y2="1.41125" gradientUnits="userSpaceOnUse">
<stop stop-color="#3F3F3F"/>
<stop offset="1" stop-color="#5C5C5C"/>
</linearGradient>
<linearGradient id="paint1_linear_517_7567" x1="3.69531" y1="4.17644" x2="3.88999" y2="1.36162" gradientUnits="userSpaceOnUse">
<stop stop-color="#AAAAAA"/>
<stop offset="1" stop-color="#C2C2C2"/>
</linearGradient>
<linearGradient id="paint2_linear_517_7567" x1="3.25608" y1="3.57637" x2="3.41814" y2="1.16535" gradientUnits="userSpaceOnUse">
<stop stop-color="#3F3F3F"/>
<stop offset="1" stop-color="#5C5C5C"/>
</linearGradient>
<linearGradient id="paint3_linear_517_7567" x1="3.05468" y1="3.45315" x2="3.21568" y2="1.12582" gradientUnits="userSpaceOnUse">
<stop stop-color="#AAAAAA"/>
<stop offset="1" stop-color="#C2C2C2"/>
</linearGradient>
<linearGradient id="paint4_linear_517_7567" x1="19.5964" y1="30.9154" x2="48.8151" y2="27.1391" gradientUnits="userSpaceOnUse">
<stop stop-color="#CECBCB"/>
<stop offset="1" stop-color="white"/>
</linearGradient>
<linearGradient id="paint5_linear_517_7567" x1="35.7585" y1="14.1632" x2="26.2214" y2="23.1893" gradientUnits="userSpaceOnUse">
<stop stop-color="#E8EAE9"/>
<stop offset="0.498386" stop-color="#707072"/>
<stop offset="1" stop-color="#2F3032"/>
</linearGradient>
<linearGradient id="paint6_linear_517_7567" x1="20.0955" y1="44.3894" x2="29.205" y2="27.7359" gradientUnits="userSpaceOnUse">
<stop stop-color="#E8EAE9"/>
<stop offset="0.498386" stop-color="#707072"/>
<stop offset="1" stop-color="#2F3032"/>
</linearGradient>
<linearGradient id="paint7_linear_517_7567" x1="16.2078" y1="27.181" x2="21.2875" y2="19.7447" gradientUnits="userSpaceOnUse">
<stop stop-color="#E8EAE9"/>
<stop offset="0.498386" stop-color="#707072"/>
<stop offset="1" stop-color="#2F3032"/>
</linearGradient>
<linearGradient id="paint8_linear_517_7567" x1="35.9632" y1="34.3087" x2="37.1466" y2="30.8485" gradientUnits="userSpaceOnUse">
<stop stop-color="#ECEAEA"/>
<stop offset="1" stop-color="white" stop-opacity="0"/>
</linearGradient>
<linearGradient id="paint9_linear_517_7567" x1="49.4176" y1="28.1446" x2="44.9504" y2="29.7041" gradientUnits="userSpaceOnUse">
<stop stop-color="#ECEAEA"/>
<stop offset="1" stop-color="white" stop-opacity="0"/>
</linearGradient>
<linearGradient id="paint10_linear_517_7567" x1="25.3394" y1="34.9015" x2="26.6828" y2="32.0427" gradientUnits="userSpaceOnUse">
<stop stop-color="#040404"/>
<stop offset="1" stop-color="#3C3C3C" stop-opacity="0"/>
</linearGradient>
</defs>
</svg>
