<svg width="115" height="124" viewBox="0 0 115 124" fill="none" xmlns="http://www.w3.org/2000/svg">
<rect width="115" height="115" rx="20" fill="url(#paint0_linear_543_6461)"/>
<path d="M16.3125 29V19.0059H23.9893V29H22.3623V20.4004H17.9531V29H16.3125ZM29.4375 21.2891C30.3945 21.2891 31.1169 21.501 31.6045 21.9248C32.0967 22.3486 32.3428 23.0094 32.3428 23.9072V29H31.2012L30.8936 27.9268H30.8389C30.6247 28.2002 30.4036 28.4258 30.1758 28.6035C29.9479 28.7812 29.6836 28.9134 29.3828 29C29.0866 29.0911 28.7243 29.1367 28.2959 29.1367C27.8447 29.1367 27.4414 29.0547 27.0859 28.8906C26.7305 28.722 26.4502 28.4668 26.2451 28.125C26.04 27.7832 25.9375 27.3503 25.9375 26.8262C25.9375 26.0469 26.2269 25.4613 26.8057 25.0693C27.389 24.6774 28.2686 24.4609 29.4443 24.4199L30.7568 24.3721V23.9756C30.7568 23.4515 30.6338 23.0778 30.3877 22.8545C30.1462 22.6312 29.8044 22.5195 29.3623 22.5195C28.984 22.5195 28.6172 22.5742 28.2617 22.6836C27.9062 22.793 27.5599 22.9274 27.2227 23.0869L26.7031 21.9521C27.0723 21.7562 27.4915 21.5967 27.9609 21.4736C28.4349 21.3506 28.9271 21.2891 29.4375 21.2891ZM30.75 25.3838L29.7725 25.418C28.9704 25.4453 28.4076 25.582 28.084 25.8281C27.7604 26.0742 27.5986 26.4115 27.5986 26.8398C27.5986 27.2135 27.7103 27.487 27.9336 27.6602C28.1569 27.8288 28.4508 27.9131 28.8154 27.9131C29.3714 27.9131 29.8317 27.7559 30.1963 27.4414C30.5654 27.1224 30.75 26.6553 30.75 26.04V25.3838ZM36.2051 21.4326V24.4746H39.7461V21.4326H41.3594V29H39.7461V25.7324H36.2051V29H34.5918V21.4326H36.2051ZM45.0645 21.4326V24.1738C45.0645 24.5749 45.1693 24.8734 45.3789 25.0693C45.5885 25.2653 45.8893 25.3633 46.2812 25.3633C46.7188 25.3633 47.1198 25.304 47.4844 25.1855C47.8535 25.0671 48.2249 24.9076 48.5986 24.707V21.4326H50.2051V29H48.5986V25.8008C48.2204 26.0241 47.8262 26.2109 47.416 26.3613C47.0059 26.5117 46.5251 26.5869 45.9736 26.5869C45.1898 26.5869 44.5745 26.3841 44.1279 25.9785C43.6813 25.5729 43.458 24.9941 43.458 24.2422V21.4326H45.0645ZM63.2139 21.4326V29H52.502V21.4326H54.1084V27.7354H57.0479V21.4326H58.6611V27.7354H61.6074V21.4326H63.2139ZM68.4844 21.2891C69.4414 21.2891 70.1637 21.501 70.6514 21.9248C71.1436 22.3486 71.3896 23.0094 71.3896 23.9072V29H70.248L69.9404 27.9268H69.8857C69.6715 28.2002 69.4505 28.4258 69.2227 28.6035C68.9948 28.7812 68.7305 28.9134 68.4297 29C68.1335 29.0911 67.7712 29.1367 67.3428 29.1367C66.8916 29.1367 66.4883 29.0547 66.1328 28.8906C65.7773 28.722 65.4971 28.4668 65.292 28.125C65.0869 27.7832 64.9844 27.3503 64.9844 26.8262C64.9844 26.0469 65.2738 25.4613 65.8525 25.0693C66.4359 24.6774 67.3154 24.4609 68.4912 24.4199L69.8037 24.3721V23.9756C69.8037 23.4515 69.6807 23.0778 69.4346 22.8545C69.193 22.6312 68.8512 22.5195 68.4092 22.5195C68.0309 22.5195 67.6641 22.5742 67.3086 22.6836C66.9531 22.793 66.6068 22.9274 66.2695 23.0869L65.75 21.9521C66.1191 21.7562 66.5384 21.5967 67.0078 21.4736C67.4818 21.3506 67.974 21.2891 68.4844 21.2891ZM69.7969 25.3838L68.8193 25.418C68.0173 25.4453 67.4544 25.582 67.1309 25.8281C66.8073 26.0742 66.6455 26.4115 66.6455 26.8398C66.6455 27.2135 66.7572 27.487 66.9805 27.6602C67.2038 27.8288 67.4977 27.9131 67.8623 27.9131C68.4183 27.9131 68.8786 27.7559 69.2432 27.4414C69.6123 27.1224 69.7969 26.6553 69.7969 26.04V25.3838ZM75.252 21.4326V24.4746H78.793V21.4326H80.4062V29H78.793V25.7324H75.252V29H73.6387V21.4326H75.252ZM82.2725 24.4609C82.2725 23.3626 82.3932 22.4284 82.6348 21.6582C82.8763 20.888 83.2568 20.2705 83.7764 19.8057C84.2959 19.3408 84.9704 19.0241 85.7998 18.8555C86.3376 18.7324 86.8844 18.6276 87.4404 18.541C87.9964 18.4544 88.5524 18.3701 89.1084 18.2881L89.3271 19.7031C89.0674 19.735 88.7894 19.7738 88.4932 19.8193C88.1969 19.8604 87.8984 19.9036 87.5977 19.9492C87.3014 19.9948 87.0166 20.0426 86.7432 20.0928C86.4743 20.1383 86.2327 20.1839 86.0186 20.2295C85.5902 20.3206 85.2279 20.471 84.9316 20.6807C84.64 20.8857 84.4121 21.1865 84.248 21.583C84.084 21.9795 83.986 22.5081 83.9541 23.1689H84.043C84.166 22.9821 84.3369 22.7952 84.5557 22.6084C84.7744 22.4215 85.0387 22.2666 85.3486 22.1436C85.6631 22.016 86.0208 21.9521 86.4219 21.9521C87.0508 21.9521 87.584 22.0843 88.0215 22.3486C88.4635 22.613 88.7985 22.9958 89.0264 23.4971C89.2588 23.9984 89.375 24.6022 89.375 25.3086C89.375 26.1517 89.2246 26.8581 88.9238 27.4277C88.6276 27.9928 88.2129 28.4189 87.6797 28.7061C87.1465 28.9932 86.5244 29.1367 85.8135 29.1367C85.2666 29.1367 84.7744 29.0342 84.3369 28.8291C83.904 28.624 83.5326 28.3232 83.2227 27.9268C82.9173 27.5257 82.6826 27.0358 82.5186 26.457C82.3545 25.8737 82.2725 25.2083 82.2725 24.4609ZM85.9229 27.8174C86.2874 27.8174 86.6019 27.7399 86.8662 27.585C87.1351 27.43 87.3424 27.1794 87.4883 26.833C87.6387 26.4867 87.7139 26.0286 87.7139 25.459C87.7139 24.7572 87.5863 24.2057 87.3311 23.8047C87.0804 23.3991 86.6657 23.1963 86.0869 23.1963C85.7314 23.1963 85.4056 23.276 85.1094 23.4355C84.8132 23.5951 84.5625 23.7819 84.3574 23.9961C84.1523 24.2057 84.0065 24.3903 83.9199 24.5498C83.9199 24.9645 83.9495 25.3656 84.0088 25.7529C84.0726 26.1403 84.1774 26.4912 84.3232 26.8057C84.4736 27.1156 84.6787 27.3617 84.9385 27.5439C85.1982 27.7262 85.5264 27.8174 85.9229 27.8174ZM94.2354 21.2891C94.9098 21.2891 95.4886 21.4281 95.9717 21.7061C96.4548 21.984 96.8262 22.3783 97.0859 22.8887C97.3457 23.3991 97.4756 24.0098 97.4756 24.7207V25.582H92.4238C92.4421 26.3158 92.638 26.8809 93.0117 27.2773C93.39 27.6738 93.9186 27.8721 94.5977 27.8721C95.0807 27.8721 95.5137 27.8265 95.8965 27.7354C96.2839 27.6396 96.6826 27.5007 97.0928 27.3184V28.624C96.7145 28.8018 96.3294 28.9316 95.9375 29.0137C95.5456 29.0957 95.0762 29.1367 94.5293 29.1367C93.7865 29.1367 93.1325 28.9932 92.5674 28.7061C92.0068 28.4144 91.5671 27.9814 91.248 27.4072C90.9336 26.833 90.7764 26.1198 90.7764 25.2676C90.7764 24.4199 90.9199 23.6999 91.207 23.1074C91.4941 22.515 91.8975 22.0638 92.417 21.7539C92.9365 21.444 93.5426 21.2891 94.2354 21.2891ZM94.2354 22.499C93.7295 22.499 93.3193 22.6631 93.0049 22.9912C92.695 23.3193 92.5127 23.8001 92.458 24.4336H95.9033C95.8988 24.0553 95.835 23.7204 95.7119 23.4287C95.5934 23.137 95.4111 22.9092 95.165 22.7451C94.9235 22.5811 94.6136 22.499 94.2354 22.499ZM16.3125 46V36.0059H22.4102V37.3936H17.9531V40.0459H19.1494C20.0973 40.0459 20.8584 40.1712 21.4326 40.4219C22.0068 40.668 22.4215 41.012 22.6768 41.4541C22.932 41.8962 23.0596 42.4043 23.0596 42.9785C23.0596 43.931 22.7565 44.6738 22.1504 45.207C21.5488 45.7357 20.5713 46 19.2178 46H16.3125ZM17.9531 44.6328H19.1152C19.8854 44.6328 20.4574 44.5029 20.8311 44.2432C21.2048 43.9788 21.3916 43.5573 21.3916 42.9785C21.3916 42.5729 21.3005 42.2585 21.1182 42.0352C20.9359 41.8073 20.6624 41.6478 20.2979 41.5566C19.9378 41.4655 19.4821 41.4199 18.9307 41.4199H17.9531V44.6328ZM27.8652 38.2891C28.8223 38.2891 29.5446 38.501 30.0322 38.9248C30.5244 39.3486 30.7705 40.0094 30.7705 40.9072V46H29.6289L29.3213 44.9268H29.2666C29.0524 45.2002 28.8314 45.4258 28.6035 45.6035C28.3757 45.7812 28.1113 45.9134 27.8105 46C27.5143 46.0911 27.152 46.1367 26.7236 46.1367C26.2725 46.1367 25.8691 46.0547 25.5137 45.8906C25.1582 45.722 24.8779 45.4668 24.6729 45.125C24.4678 44.7832 24.3652 44.3503 24.3652 43.8262C24.3652 43.0469 24.6546 42.4613 25.2334 42.0693C25.8167 41.6774 26.6963 41.4609 27.8721 41.4199L29.1846 41.3721V40.9756C29.1846 40.4515 29.0615 40.0778 28.8154 39.8545C28.5739 39.6312 28.2321 39.5195 27.79 39.5195C27.4118 39.5195 27.0449 39.5742 26.6895 39.6836C26.334 39.793 25.9876 39.9274 25.6504 40.0869L25.1309 38.9521C25.5 38.7562 25.9193 38.5967 26.3887 38.4736C26.8626 38.3506 27.3548 38.2891 27.8652 38.2891ZM29.1777 42.3838L28.2002 42.418C27.3981 42.4453 26.8353 42.582 26.5117 42.8281C26.1882 43.0742 26.0264 43.4115 26.0264 43.8398C26.0264 44.2135 26.138 44.487 26.3613 44.6602C26.5846 44.8288 26.8786 44.9131 27.2432 44.9131C27.7992 44.9131 28.2594 44.7559 28.624 44.4414C28.9932 44.1224 29.1777 43.6553 29.1777 43.04V42.3838ZM35.3711 38.2891C35.9271 38.2891 36.4261 38.3643 36.8682 38.5146C37.3148 38.6605 37.668 38.8815 37.9277 39.1777C38.1875 39.474 38.3174 39.8431 38.3174 40.2852C38.3174 40.7409 38.1852 41.1055 37.9209 41.3789C37.6611 41.6478 37.3079 41.8415 36.8613 41.96V42.0215C37.1758 42.099 37.4606 42.2106 37.7158 42.3564C37.971 42.4977 38.1738 42.6891 38.3242 42.9307C38.4792 43.1676 38.5566 43.473 38.5566 43.8467C38.5566 44.2705 38.4313 44.6556 38.1807 45.002C37.9346 45.3483 37.5563 45.624 37.0459 45.8291C36.5355 46.0342 35.8861 46.1367 35.0977 46.1367C34.7194 46.1367 34.3594 46.1162 34.0176 46.0752C33.6803 46.0387 33.3727 45.9863 33.0947 45.918C32.8167 45.8451 32.5752 45.7585 32.3701 45.6582V44.2773C32.6846 44.4277 33.0651 44.5645 33.5117 44.6875C33.9583 44.806 34.4368 44.8652 34.9473 44.8652C35.3255 44.8652 35.6673 44.8311 35.9727 44.7627C36.2826 44.6898 36.5264 44.5713 36.7041 44.4072C36.8864 44.2432 36.9775 44.0244 36.9775 43.751C36.9775 43.5003 36.8978 43.293 36.7383 43.1289C36.5788 42.9648 36.3395 42.8441 36.0205 42.7666C35.7015 42.6846 35.2982 42.6436 34.8105 42.6436H33.9082V41.4609H34.7012C35.3711 41.4609 35.8952 41.388 36.2734 41.2422C36.6562 41.0918 36.8477 40.832 36.8477 40.4629C36.8477 40.153 36.7132 39.9206 36.4443 39.7656C36.1755 39.6107 35.763 39.5332 35.207 39.5332C34.8242 39.5332 34.446 39.5765 34.0723 39.6631C33.6986 39.7451 33.3249 39.8636 32.9512 40.0186L32.4453 38.8359C32.86 38.6673 33.3044 38.5352 33.7783 38.4395C34.2523 38.3392 34.7832 38.2891 35.3711 38.2891ZM43.2598 38.2891C44.2168 38.2891 44.9391 38.501 45.4268 38.9248C45.9189 39.3486 46.165 40.0094 46.165 40.9072V46H45.0234L44.7158 44.9268H44.6611C44.4469 45.2002 44.2259 45.4258 43.998 45.6035C43.7702 45.7812 43.5059 45.9134 43.2051 46C42.9089 46.0911 42.5465 46.1367 42.1182 46.1367C41.667 46.1367 41.2637 46.0547 40.9082 45.8906C40.5527 45.722 40.2725 45.4668 40.0674 45.125C39.8623 44.7832 39.7598 44.3503 39.7598 43.8262C39.7598 43.0469 40.0492 42.4613 40.6279 42.0693C41.2113 41.6774 42.0908 41.4609 43.2666 41.4199L44.5791 41.3721V40.9756C44.5791 40.4515 44.4561 40.0778 44.21 39.8545C43.9684 39.6312 43.6266 39.5195 43.1846 39.5195C42.8063 39.5195 42.4395 39.5742 42.084 39.6836C41.7285 39.793 41.3822 39.9274 41.0449 40.0869L40.5254 38.9521C40.8945 38.7562 41.3138 38.5967 41.7832 38.4736C42.2572 38.3506 42.7493 38.2891 43.2598 38.2891ZM44.5723 42.3838L43.5947 42.418C42.7926 42.4453 42.2298 42.582 41.9062 42.8281C41.5827 43.0742 41.4209 43.4115 41.4209 43.8398C41.4209 44.2135 41.5326 44.487 41.7559 44.6602C41.9792 44.8288 42.2731 44.9131 42.6377 44.9131C43.1937 44.9131 43.654 44.7559 44.0186 44.4414C44.3877 44.1224 44.5723 43.6553 44.5723 43.04V42.3838ZM52.2969 38.2891C53.1947 38.2891 53.9147 38.6172 54.457 39.2734C55.0039 39.9297 55.2773 40.9049 55.2773 42.1992C55.2773 43.056 55.1497 43.7783 54.8945 44.3662C54.6439 44.9495 54.2907 45.3916 53.835 45.6924C53.3838 45.9886 52.8574 46.1367 52.2559 46.1367C51.873 46.1367 51.5404 46.0866 51.2578 45.9863C50.9753 45.8861 50.7337 45.7562 50.5332 45.5967C50.3327 45.4326 50.1641 45.2549 50.0273 45.0635H49.9316C49.9544 45.2458 49.9749 45.4486 49.9932 45.6719C50.016 45.8906 50.0273 46.0911 50.0273 46.2734V49.3564H48.4141V38.4326H49.7266L49.9521 39.4785H50.0273C50.1686 39.2643 50.3395 39.0661 50.54 38.8838C50.7451 38.7015 50.9912 38.5579 51.2783 38.4531C51.57 38.3438 51.9095 38.2891 52.2969 38.2891ZM51.8662 39.6016C51.4242 39.6016 51.0687 39.6904 50.7998 39.8682C50.5355 40.0413 50.3418 40.3034 50.2188 40.6543C50.1003 41.0052 50.0365 41.445 50.0273 41.9736V42.1992C50.0273 42.7598 50.0843 43.236 50.1982 43.6279C50.3167 44.0153 50.5104 44.3115 50.7793 44.5166C51.0527 44.7171 51.4219 44.8174 51.8867 44.8174C52.2786 44.8174 52.6022 44.7103 52.8574 44.4961C53.1172 44.2819 53.3109 43.9766 53.4385 43.5801C53.5661 43.1836 53.6299 42.7165 53.6299 42.1787C53.6299 41.363 53.484 40.7295 53.1924 40.2783C52.9053 39.8271 52.4632 39.6016 51.8662 39.6016Z" fill="#1C1C1C"/>
<path d="M18.5107 62H17.7197V56.9414C17.7197 56.7493 17.7197 56.585 17.7197 56.4482C17.723 56.3083 17.7262 56.1813 17.7295 56.0674C17.736 55.9502 17.7441 55.8314 17.7539 55.7109C17.653 55.8151 17.5586 55.9046 17.4707 55.9795C17.3828 56.0511 17.2738 56.1406 17.1436 56.248L16.3281 56.9023L15.9033 56.3506L17.8369 54.8613H18.5107V62ZM23.4717 57.6348C23.9567 57.6348 24.3783 57.7178 24.7363 57.8838C25.0944 58.0465 25.3711 58.2842 25.5664 58.5967C25.765 58.9092 25.8643 59.2884 25.8643 59.7344C25.8643 60.2227 25.7585 60.6442 25.5469 60.999C25.3353 61.3506 25.0309 61.6224 24.6338 61.8145C24.2367 62.0033 23.7614 62.0977 23.208 62.0977C22.8369 62.0977 22.4919 62.0651 22.1729 62C21.8538 61.9349 21.5853 61.8372 21.3672 61.707V60.9355C21.6048 61.0788 21.8929 61.1927 22.2314 61.2773C22.57 61.362 22.8988 61.4043 23.2178 61.4043C23.5791 61.4043 23.8949 61.3473 24.165 61.2334C24.4385 61.1162 24.6501 60.9404 24.7998 60.7061C24.9528 60.4684 25.0293 60.1706 25.0293 59.8125C25.0293 59.3372 24.8828 58.971 24.5898 58.7139C24.3001 58.4535 23.8411 58.3232 23.2129 58.3232C23.0111 58.3232 22.7897 58.3395 22.5488 58.3721C22.3079 58.4046 22.1094 58.4404 21.9531 58.4795L21.543 58.2109L21.8164 54.8613H25.3662V55.6035H22.5098L22.3291 57.7568C22.4528 57.7308 22.6123 57.7048 22.8076 57.6787C23.0029 57.6494 23.2243 57.6348 23.4717 57.6348ZM35.5469 56.6484V62H34.8145V58.5137C34.8145 58.3704 34.8177 58.2256 34.8242 58.0791C34.834 57.9294 34.8454 57.7796 34.8584 57.6299H34.8291L33.0518 62H32.3633L30.6299 57.6299H30.6006C30.6104 57.7796 30.6169 57.9294 30.6201 58.0791C30.6266 58.2256 30.6299 58.3802 30.6299 58.543V62H29.8926V56.6484H30.9814L32.71 61.0234L34.4629 56.6484H35.5469ZM38.0029 56.6484V60.0127C38.0029 60.0778 38.0013 60.1624 37.998 60.2666C37.9948 60.3675 37.9899 60.4766 37.9834 60.5938C37.9769 60.7077 37.9704 60.8184 37.9639 60.9258C37.9606 61.0299 37.9557 61.1162 37.9492 61.1846L40.8691 56.6484H41.8652V62H41.1084V58.7188C41.1084 58.6146 41.11 58.4811 41.1133 58.3184C41.1165 58.1556 41.1214 57.9961 41.1279 57.8398C41.1344 57.6803 41.1393 57.5566 41.1426 57.4688L38.2324 62H37.2314V56.6484H38.0029ZM44.4043 56.6484V58.8945H47.3877V56.6484H48.1982V62H47.3877V59.583H44.4043V62H43.5889V56.6484H44.4043Z" fill="#1C1C1C"/>
<path d="M47.7453 102.695C49.612 102.132 53.0104 100.592 54.2318 99.4523C55.6401 98.2593 52.7189 96.9247 52.3723 96.7235C52.0257 96.5224 34.9925 88.0751 32.0216 86.7678C29.0507 85.4605 19.6431 88.2184 17.3651 89.483C15.5083 90.5138 16.8204 91.2429 17.068 91.444C17.3156 91.6451 31.5043 99.5528 36.6044 101.966C40.4666 103.794 44.0812 103.802 47.7453 102.695Z" fill="black" fill-opacity="0.1"/>
<path fill-rule="evenodd" clip-rule="evenodd" d="M34.2691 93.8366L36.1534 92.9628L36.1539 92.9638C36.166 92.958 36.1781 92.9523 36.1904 92.9468C37.3128 92.4431 38.9141 93.5843 39.7669 95.4957C40.6197 97.4071 40.4011 99.365 39.2787 99.8687C39.2633 99.8756 39.2478 99.8822 39.2322 99.8885L37.4151 100.732L36.4067 98.522C36.1414 98.1707 35.9014 97.7663 35.7022 97.3198C35.5185 96.9081 35.3845 96.4942 35.2986 96.0931L34.2691 93.8366Z" fill="black"/>
<ellipse rx="2.22851" ry="3.78531" transform="matrix(-0.911976 0.409256 0.40762 0.913593 35.8666 97.2766)" fill="black"/>
<g filter="url(#filter0_i_543_6461)">
<ellipse rx="1.67147" ry="2.83912" transform="matrix(-0.911976 0.409256 0.40762 0.913593 35.8023 97.2786)" fill="url(#paint1_linear_543_6461)"/>
</g>
<g filter="url(#filter1_di_543_6461)">
<path fill-rule="evenodd" clip-rule="evenodd" d="M35.7721 96.4781C35.652 96.4214 35.5323 96.4104 35.4292 96.4566C35.3992 96.4701 35.3718 96.4879 35.3472 96.5095L34.6282 95.2605C34.692 95.2044 34.7629 95.1582 34.8408 95.1232C35.12 94.9979 35.4466 95.0358 35.7721 95.2021L35.7721 96.4781Z" fill="#4C4C4C"/>
</g>
<path fill-rule="evenodd" clip-rule="evenodd" d="M34.2703 93.7967L36.1546 92.9229L36.1548 92.9233C36.1664 92.9178 36.178 92.9123 36.1898 92.907C37.3122 92.4033 38.9135 93.5445 39.7663 95.456C40.6191 97.3674 40.4005 99.3253 39.2781 99.829C39.2669 99.834 39.2557 99.8388 39.2445 99.8435L37.4163 100.692L36.4108 98.4885C36.1437 98.1358 35.902 97.7292 35.7016 97.2801C35.5167 96.8657 35.3822 96.4492 35.2963 96.0457L34.2703 93.7967Z" fill="black"/>
<path d="M33.8122 98.1887C34.6644 100.099 36.2651 101.239 37.3876 100.735C38.51 100.231 38.7291 98.2746 37.8769 96.3646C37.0248 94.4547 35.3759 93.2119 34.2535 93.7156C33.131 94.2193 32.9601 96.2788 33.8122 98.1887Z" fill="#2D2C2C"/>
<g filter="url(#filter2_i_543_6461)">
<ellipse rx="1.56662" ry="2.73779" transform="matrix(-0.907872 0.419393 0.394561 0.918855 35.8221 97.2785)" fill="url(#paint2_linear_543_6461)"/>
</g>
<g filter="url(#filter3_di_543_6461)">
<path fill-rule="evenodd" clip-rule="evenodd" d="M36.8515 96.7381C36.4326 95.8036 35.6936 95.2261 35.132 95.3749L35.5504 96.3307C35.8056 96.3158 36.1134 96.5686 36.3052 96.9636L36.8515 96.7381Z" fill="#A9A8A8"/>
</g>
<path fill-rule="evenodd" clip-rule="evenodd" d="M20.1104 86.7156L21.7708 86.2863L21.7711 86.2873C21.7816 86.2844 21.7922 86.2816 21.8029 86.279C22.7894 86.0369 23.9206 87.2023 24.3294 88.882C24.7382 90.5616 24.2698 92.1195 23.2832 92.3616C23.269 92.3651 23.2547 92.3683 23.2404 92.3712L21.6415 92.7856L21.1512 90.8418C20.9875 90.5165 20.8523 90.1517 20.7567 89.7587C20.6685 89.3962 20.6211 89.0394 20.611 88.7002L20.1104 86.7156Z" fill="black"/>
<ellipse rx="1.84046" ry="3.12575" transform="matrix(-0.970604 0.23817 0.236622 0.972219 20.8949 89.748)" fill="black"/>
<g filter="url(#filter4_i_543_6461)">
<ellipse rx="1.38041" ry="2.34442" transform="matrix(-0.970604 0.23817 0.236622 0.972219 20.8432 89.7399)" fill="url(#paint3_linear_543_6461)"/>
</g>
<g filter="url(#filter5_di_543_6461)">
<path fill-rule="evenodd" clip-rule="evenodd" d="M20.9364 89.085C20.8472 89.021 20.7516 88.9942 20.661 89.0164C20.6348 89.0229 20.6101 89.0331 20.587 89.0469L20.1886 87.9256C20.2489 87.8894 20.3134 87.8624 20.382 87.8455C20.6272 87.7854 20.8866 87.8645 21.1261 88.0478L20.9364 89.085Z" fill="#4C4C4C"/>
</g>
<path fill-rule="evenodd" clip-rule="evenodd" d="M21.1457 90.8859C20.9818 90.5603 20.8464 90.1951 20.7507 89.8017C20.6623 89.4387 20.615 89.0815 20.6049 88.742L20.1048 86.7593L21.7653 86.3299L21.7653 86.3302C21.7758 86.3273 21.7863 86.3246 21.7968 86.322C22.7834 86.0799 23.9146 87.2453 24.3234 88.925C24.7322 90.6046 24.2638 92.1625 23.2772 92.4046C23.2685 92.4067 23.2597 92.4088 23.2509 92.4107L21.6359 92.8292L21.1457 90.8859Z" fill="black"/>
<ellipse rx="1.86091" ry="3.16048" transform="matrix(-0.970604 0.23817 0.236622 0.972219 20.8893 89.7544)" fill="#2C2C2C"/>
<g filter="url(#filter6_i_543_6461)">
<g filter="url(#filter7_i_543_6461)">
<ellipse rx="1.29502" ry="2.26365" transform="matrix(-0.955947 0.291383 0.304388 0.953182 20.7794 89.9645)" fill="url(#paint4_linear_543_6461)"/>
</g>
<g filter="url(#filter8_di_543_6461)">
<path fill-rule="evenodd" clip-rule="evenodd" d="M21.6583 89.6781C21.4213 88.8634 20.8779 88.2906 20.3962 88.3298L20.6301 89.1609C20.8432 89.1848 21.0689 89.4335 21.1814 89.7806L21.6583 89.6781Z" fill="#A9A8A8"/>
</g>
</g>
<g filter="url(#filter9_ii_543_6461)">
<path fill-rule="evenodd" clip-rule="evenodd" d="M44.7409 85.6457C44.8618 85.7506 44.9872 85.8605 45.1418 85.9019C45.8415 86.0891 51.7021 89.3026 52.9799 90.5939C54.2233 91.8506 54.1544 92.6018 54.1224 92.9505C54.1177 93.0008 54.1139 93.0428 54.1149 93.0767C54.1198 93.2456 54.1185 93.5857 54.1169 94.0183C54.1159 94.2731 54.1149 94.56 54.1149 94.863L54.1149 95.8924C54.1125 95.9693 54.1128 96.0478 54.1131 96.1279C54.1146 96.4681 54.1162 96.838 53.9076 97.2433C53.6505 97.7428 52.4089 99.5746 46.3838 101.467C43.4486 102.389 39.8317 100.515 39.0629 100.116C39.0121 100.09 38.9786 100.039 38.9735 99.9824C38.9266 99.4543 38.8 98.7284 38.6184 98.0099C38.6091 97.9779 38.6 97.9458 38.5912 97.9137C38.3943 97.1958 38.1444 96.5008 37.8721 96.0353C37.1801 94.8524 35.7073 93.3935 34.5492 93.7932C33.2348 94.2468 33.3358 96.1364 33.3611 96.5875C33.3685 96.7202 33.3839 96.8087 33.3991 96.8961C33.4029 96.9183 33.4048 96.94 33.4047 96.9609C33.4046 97.0118 33.408 97.0634 33.4188 97.1131C33.4206 97.1212 33.4223 97.1298 33.4238 97.139C33.4515 97.3022 33.2652 97.406 33.1181 97.33C33.0816 97.3112 33.0404 97.304 32.9994 97.3004C32.9474 97.2957 32.8945 97.2811 32.8435 97.255L23.6786 92.5679C23.5302 92.492 23.3963 92.3962 23.2819 92.2842C23.2364 92.2397 23.1863 92.1997 23.1297 92.1705C22.9852 92.0958 22.8768 91.9576 22.8878 91.7953C22.8883 91.7872 22.8889 91.7792 22.8896 91.7711C22.8965 91.6902 22.8924 91.6086 22.8789 91.5285C22.8666 91.4556 22.8603 91.3806 22.8605 91.3041C22.8625 90.504 22.8651 89.4757 22.2265 88.3584C21.6427 87.3373 20.7923 86.6613 20.0202 86.9035C19.2481 87.1458 19.0381 87.977 18.996 88.44C18.9547 88.8946 18.9793 89.3118 18.9935 89.5538V89.5539C18.9993 89.6512 19.0033 89.7202 19.0007 89.7519C18.9918 89.8621 17.8801 88.9058 17.8087 88.5415C17.5912 87.4326 17.5458 86.3942 17.66 85.2687C17.6735 85.1354 17.6861 85.0012 17.6988 84.8664C17.7415 84.4132 17.7846 83.9545 17.8632 83.5108C17.8887 83.3672 17.9212 83.2418 17.9584 83.1571C17.9679 83.1356 17.9771 83.113 17.9868 83.0892C18.0998 82.8115 18.2763 82.3779 19.6367 81.7698C21.5684 80.9062 26.8283 78.9838 27.0318 78.9388C27.5126 78.8327 28.1286 78.8783 28.6272 78.9152C28.9197 78.9369 29.1719 78.9555 29.3327 78.9388C31.6556 78.6971 34.3484 79.0178 37.9015 80.8095C38.377 81.0112 38.8471 81.2414 39.3024 81.5041C40.4393 82.1602 41.3973 82.8569 42.1941 83.4981C43.1245 84.2087 43.8419 84.8476 44.3569 85.3062C44.5006 85.4342 44.6285 85.5482 44.7409 85.6457Z" fill="url(#paint5_linear_543_6461)"/>
</g>
<g filter="url(#filter10_ddi_543_6461)">
<path d="M35.5966 89.808C34.8041 89.48 34.2245 88.6928 33.4424 87.6586C32.5782 86.516 32.9738 84.7724 34.3035 84.2385L39.2208 82.2643C39.522 82.1434 39.8474 82.1145 40.1347 82.2656C40.6002 82.5104 41.4707 83.0768 42.9589 84.385C44.1077 85.3948 44.3376 85.6578 44.9311 86.0577C45.025 86.1209 45.0087 86.2602 44.6638 86.5443C43.5646 87.45 37.5069 90.5984 35.5966 89.808Z" fill="url(#paint6_linear_543_6461)"/>
</g>
<g filter="url(#filter11_di_543_6461)">
<path d="M26.4856 83.0064C24.7875 82.4721 24.3505 82.4691 23.1782 82.403C22.3716 82.3576 21.0908 82.4768 20.9511 82.8399C20.8114 83.2029 22.3619 84.3432 23.0037 84.6982C23.3174 84.8717 34.1388 90.2929 33.7947 89.6522C33.3708 88.8628 31.4195 86.6079 30.7531 85.6871C29.642 84.152 28.1837 83.5406 26.4856 83.0064Z" fill="url(#paint7_linear_543_6461)"/>
</g>
<g filter="url(#filter12_di_543_6461)">
<path d="M22.6366 81.9375L29.7607 79.0369C29.7607 79.0369 29.6011 79.0931 28.7269 79.0803C28.4218 79.0758 21.0281 82.1141 20.974 82.1616L22.6366 81.9375Z" fill="url(#paint8_linear_543_6461)"/>
</g>
<g filter="url(#filter13_f_543_6461)">
<path d="M38.8698 93.7192C36.1338 92.4478 34.5965 90.8518 32.9482 89.393C37.8566 90.8479 48.1303 94.0316 47.9693 94.2388C47.7681 94.4978 47.0302 94.8051 44.5784 94.9703C42.1645 95.133 39.1831 93.8647 38.8698 93.7192Z" fill="url(#paint9_linear_543_6461)" fill-opacity="0.21"/>
</g>
<g filter="url(#filter14_f_543_6461)">
<path d="M49.4349 87.6506C49.2795 87.5228 47.3261 85.499 45.8635 84.4916C47.0724 86.85 49.8287 91.9763 50.085 91.9506C50.4055 91.9186 51.8716 91.6441 52.3034 90.6469C52.7286 89.6652 49.6293 87.8103 49.4349 87.6506Z" fill="url(#paint10_linear_543_6461)" fill-opacity="0.13"/>
</g>
<g filter="url(#filter15_di_543_6461)">
<path d="M29.135 89.951C29.135 89.8878 29.0989 89.8301 29.0421 89.8025L28.244 89.4144C28.1342 89.361 28.0067 89.441 28.0067 89.5631C28.0067 89.6267 28.0431 89.6847 28.1002 89.7124L28.899 90.0992C29.0083 90.1521 29.135 90.0725 29.135 89.951Z" fill="#323232"/>
</g>
<g filter="url(#filter16_di_543_6461)">
<path d="M23.9004 87.6412C23.9004 87.578 23.8643 87.5203 23.8075 87.4927L23.0094 87.1046C22.8996 87.0512 22.7721 87.1311 22.7721 87.2533C22.7721 87.3169 22.8084 87.3749 22.8656 87.4026L23.6644 87.7893C23.7737 87.8423 23.9004 87.7627 23.9004 87.6412Z" fill="#323232"/>
</g>
<g filter="url(#filter17_f_543_6461)">
<path d="M31.1611 95.873L24.9207 92.8189C23.9581 92.3479 23.2261 91.4996 22.9491 90.4644C22.8146 89.9615 22.7091 89.5206 22.7047 89.3644C22.693 88.9494 33.2583 93.974 32.8885 94.9128C32.6393 95.5452 31.7716 96.1717 31.1611 95.873Z" fill="url(#paint11_linear_543_6461)" fill-opacity="0.12"/>
</g>
<path d="M40.9249 88.612L34.689 84.0704C33.9748 84.2637 32.3496 84.9911 32.0399 85.1074C31.6386 85.2581 31.5719 85.3421 31.5719 85.3421C31.5719 85.4632 31.6338 85.5162 31.8285 85.7054C32.1078 85.9767 32.226 86.1016 32.9178 86.9846C33.9141 88.2562 34.6721 89.4394 35.399 89.7233C35.9772 89.9492 36.8791 90.1467 38.1626 89.7233C39.3098 89.3449 40.0159 88.9172 40.9249 88.612Z" fill="#C4C4C4" fill-opacity="0.2"/>
<g filter="url(#filter18_ddii_543_6461)">
<path d="M53.2804 92.7006C53.5113 92.3888 53.5344 92.121 53.511 91.7956C53.4885 91.483 53.4883 91.1708 53.6464 91.4414C53.7932 91.6927 53.9693 92.0854 54.0023 92.4056C54.0237 92.6143 54.0103 92.72 53.9907 92.9126C53.9817 93.0007 53.8004 93.5387 53.8273 93.6548C53.8542 93.771 53.7951 94.5715 53.7992 94.6925C53.8032 94.8134 53.2979 95.7136 51.9704 96.5818C50.8677 97.3031 49.2843 97.7765 49.122 97.7998C48.9596 97.8231 48.8006 97.2787 48.6827 97.2487C48.3744 97.1699 47.4634 97.5045 47.1234 97.59C46.7266 97.6897 45.8007 97.9197 44.7889 97.7897C43.5373 97.629 43.3458 97.4868 42.1952 96.8603C41.1908 96.3136 41.9123 95.4236 43.0207 95.705C43.6801 95.8725 44.4244 96.0232 45.2063 96.1034C47.9684 96.3865 50.15 95.0742 50.4626 94.8855C51.7764 94.0926 52.4665 93.7993 53.2804 92.7006Z" fill="#272727"/>
</g>
<mask id="mask0_543_6461" style="mask-type:alpha" maskUnits="userSpaceOnUse" x="41" y="92" width="14" height="6">
<path d="M53.28 92.6951C53.3024 92.6648 53.323 92.634 53.3419 92.6029C53.568 92.2303 54.0701 91.9939 54.1362 92.4247C54.1577 92.6333 54.1527 92.7659 54.1332 92.9585C54.1243 93.0466 53.8006 93.5329 53.8275 93.649C53.8545 93.7651 53.7959 94.5657 53.8001 94.6866C53.8042 94.8076 53.2995 95.7081 51.9725 96.5772C50.8702 97.2991 49.2872 97.7735 49.1249 97.797C48.9626 97.8204 48.8031 97.2761 48.6853 97.2461C48.3769 97.1676 47.4661 97.5027 47.1262 97.5884C46.7294 97.6884 45.8037 97.919 44.7918 97.7897C43.5401 97.6297 43.3485 97.4876 42.1975 96.862C41.1928 96.3158 41.9137 95.4254 43.0222 95.7061C43.6817 95.8731 44.4261 96.0234 45.2081 96.1031C47.9704 96.3844 50.1512 95.0707 50.4636 94.8819C51.7769 94.088 52.4668 93.7944 53.28 92.6951Z" fill="#999999"/>
</mask>
<g mask="url(#mask0_543_6461)">
<g filter="url(#filter19_d_543_6461)">
<mask id="path-33-inside-1_543_6461" fill="white">
<path d="M46.4494 95.4105C46.4494 95.4105 46.9776 96.5741 45.286 96.801C44.7774 96.8693 43.891 96.7952 43.31 96.3321C42.9907 96.0775 42.5498 95.3517 42.5498 95.3517L46.4494 95.4105Z"/>
</mask>
<path d="M46.4494 95.4105L49.1805 94.1706L48.3949 92.44L46.4945 92.4114L46.4494 95.4105ZM45.286 96.801L45.6848 99.7738L45.286 96.801ZM43.31 96.3321L41.4406 98.6776L43.31 96.3321ZM42.5498 95.3517L42.595 92.3527L37.1689 92.271L39.9863 96.909L42.5498 95.3517ZM46.4494 95.4105C43.7182 96.6503 43.7175 96.6486 43.7167 96.6469C43.7164 96.6464 43.7157 96.6446 43.7152 96.6435C43.7141 96.6413 43.7131 96.639 43.7121 96.6367C43.7101 96.6322 43.7081 96.6278 43.7061 96.6233C43.7022 96.6144 43.6983 96.6055 43.6946 96.5967C43.687 96.5792 43.6798 96.5618 43.6728 96.5445C43.6589 96.5101 43.6459 96.4753 43.6336 96.4399C43.6099 96.3711 43.5861 96.2905 43.5672 96.1982C43.5339 96.0358 43.4888 95.7089 43.5913 95.2969C43.7096 94.8211 43.9906 94.3813 44.384 94.0869C44.7267 93.8303 44.9777 93.8161 44.8872 93.8283L45.6848 99.7738C46.4402 99.6724 47.2595 99.4277 47.9789 98.8892C48.7489 98.3127 49.2151 97.5395 49.4128 96.7444C49.5946 96.0131 49.5232 95.3811 49.4438 94.9935C49.4017 94.7885 49.3499 94.6153 49.3039 94.4819C49.2805 94.4143 49.2577 94.3543 49.237 94.3027C49.2266 94.2769 49.2165 94.2529 49.2071 94.2309C49.2024 94.2199 49.1978 94.2094 49.1934 94.1993C49.1911 94.1943 49.189 94.1894 49.1868 94.1846C49.1857 94.1822 49.1847 94.1799 49.1836 94.1775C49.1831 94.1764 49.1823 94.1746 49.1821 94.1741C49.1813 94.1723 49.1805 94.1706 46.4494 95.4105ZM44.8872 93.8283C44.9359 93.8217 44.9476 93.824 44.9284 93.8234C44.9122 93.823 44.895 93.821 44.8842 93.819C44.8725 93.8167 44.8901 93.8186 44.9326 93.8361C44.9748 93.8534 45.0665 93.8965 45.1795 93.9866L41.4406 98.6776C42.2316 99.3081 43.1053 99.5873 43.7661 99.7126C44.436 99.8397 45.1081 99.8512 45.6848 99.7738L44.8872 93.8283ZM45.1795 93.9866C45.3368 94.1119 45.4021 94.2012 45.3639 94.1552C45.3455 94.133 45.3103 94.0874 45.2627 94.0198C45.2178 93.956 45.1765 93.8936 45.1463 93.8466C45.1317 93.8238 45.1208 93.8066 45.1148 93.7969C45.1118 93.7921 45.1101 93.7893 45.1098 93.7888C45.1096 93.7885 45.1098 93.7889 45.1104 93.7898C45.1107 93.7903 45.1111 93.7909 45.1115 93.7917C45.1118 93.7921 45.1121 93.7925 45.1123 93.793C45.1125 93.7932 45.1126 93.7935 45.1128 93.7937C45.1129 93.7938 45.113 93.794 45.113 93.7941C45.1131 93.7943 45.1133 93.7945 42.5498 95.3517C39.9863 96.909 39.9865 96.9092 39.9866 96.9094C39.9866 96.9095 39.9868 96.9097 39.9869 96.9098C39.987 96.9101 39.9872 96.9104 39.9874 96.9108C39.9878 96.9114 39.9882 96.9121 39.9887 96.9129C39.9896 96.9143 39.9906 96.916 39.9917 96.9179C39.994 96.9216 39.9967 96.926 39.9999 96.9311C40.0062 96.9414 40.0142 96.9544 40.0239 96.97C40.0433 97.001 40.0694 97.0424 40.1011 97.0917C40.1635 97.1887 40.2524 97.3236 40.3576 97.4731C40.4946 97.6677 40.9038 98.2498 41.4406 98.6776L45.1795 93.9866ZM42.5046 98.3508L46.4042 98.4095L46.4945 92.4114L42.595 92.3527L42.5046 98.3508Z" fill="white" fill-opacity="0.9" mask="url(#path-33-inside-1_543_6461)"/>
</g>
<g filter="url(#filter20_d_543_6461)">
<mask id="path-35-inside-2_543_6461" fill="white">
<path d="M53.4765 91.4045C53.4765 91.4045 53.9125 91.9761 53.6107 92.6257C53.5199 92.8209 53.3365 92.9224 53.1529 92.7835C53.0162 92.6801 52.575 92.7705 52.575 92.7705L53.4765 91.4045Z"/>
</mask>
<path d="M53.4765 91.4045L55.8613 89.5854L53.2997 86.2272L50.9731 89.7524L53.4765 91.4045ZM53.6107 92.6257L56.3308 93.8894L53.6107 92.6257ZM53.1529 92.7835L51.3436 95.1757L53.1529 92.7835ZM52.575 92.7705L50.0716 91.1184L46.0824 97.163L53.1772 95.7088L52.575 92.7705ZM53.4765 91.4045C51.0917 93.2236 51.0909 93.2226 51.0901 93.2216C51.0899 93.2212 51.0891 93.2202 51.0886 93.2195C51.0875 93.2182 51.0865 93.2168 51.0855 93.2155C51.0834 93.2128 51.0814 93.2101 51.0794 93.2074C51.0754 93.202 51.0714 93.1967 51.0675 93.1914C51.0597 93.1809 51.0522 93.1706 51.0449 93.1604C51.0303 93.1402 51.0166 93.1204 51.0036 93.101C50.9778 93.0625 50.9536 93.0238 50.9311 92.984C50.8885 92.9089 50.8391 92.8085 50.7984 92.6806C50.7151 92.4186 50.636 91.9096 50.8905 91.3619L56.3308 93.8894C56.8871 92.6921 56.7409 91.5726 56.5151 90.8624C56.4031 90.5104 56.2636 90.2266 56.1487 90.024C56.09 89.9205 56.0342 89.832 55.9857 89.7598C55.9614 89.7235 55.9385 89.6908 55.9177 89.6618C55.9073 89.6473 55.8974 89.6337 55.888 89.6209C55.8833 89.6146 55.8787 89.6085 55.8742 89.6025C55.872 89.5996 55.8698 89.5967 55.8677 89.5938C55.8666 89.5924 55.8655 89.591 55.8644 89.5896C55.8639 89.5889 55.8631 89.5879 55.8629 89.5875C55.8621 89.5865 55.8613 89.5854 53.4765 91.4045ZM50.8905 91.3619C51.06 90.9971 51.4652 90.3835 52.2924 90.0491C53.2902 89.6458 54.3021 89.892 54.9622 90.3912L51.3436 95.1757C52.1873 95.8138 53.3827 96.0788 54.5408 95.6106C55.5283 95.2114 56.0706 94.4495 56.3308 93.8894L50.8905 91.3619ZM54.9622 90.3912C54.2459 89.8495 53.4996 89.773 53.3034 89.7533C52.9984 89.7228 52.7369 89.736 52.5853 89.7475C52.4177 89.7602 52.2743 89.7802 52.1786 89.7953C52.1284 89.8032 52.0852 89.8108 52.051 89.8171C52.0338 89.8202 52.0186 89.8231 52.0055 89.8257C51.999 89.827 51.993 89.8281 51.9875 89.8292C51.9848 89.8298 51.9822 89.8303 51.9797 89.8308C51.9785 89.8311 51.9773 89.8313 51.9761 89.8315C51.9755 89.8317 51.975 89.8318 51.9744 89.8319C51.9741 89.8319 51.9737 89.832 51.9736 89.8321C51.9732 89.8321 51.9727 89.8322 52.575 92.7705C53.1772 95.7088 53.1768 95.7089 53.1764 95.709C53.1763 95.709 53.1759 95.7091 53.1756 95.7092C53.1751 95.7093 53.1745 95.7094 53.174 95.7095C53.1729 95.7097 53.1719 95.7099 53.1709 95.7101C53.1688 95.7105 53.1669 95.7109 53.165 95.7113C53.1612 95.7121 53.1577 95.7128 53.1544 95.7134C53.1479 95.7147 53.1423 95.7157 53.1374 95.7166C53.1279 95.7184 53.1202 95.7197 53.1135 95.7208C53.1048 95.7221 53.0803 95.7259 53.04 95.729C53.0159 95.7308 52.8902 95.7407 52.7064 95.7223C52.611 95.7128 52.4448 95.6905 52.2398 95.63C52.0461 95.5728 51.7048 95.4489 51.3436 95.1757L54.9622 90.3912ZM55.0783 94.4227L55.9798 93.0567L50.9731 89.7524L50.0716 91.1184L55.0783 94.4227Z" fill="white" fill-opacity="0.9" mask="url(#path-35-inside-2_543_6461)"/>
</g>
</g>
<defs>
<filter id="filter0_i_543_6461" x="33.8883" y="94.5955" width="3.82788" height="5.36621" filterUnits="userSpaceOnUse" color-interpolation-filters="sRGB">
<feFlood flood-opacity="0" result="BackgroundImageFix"/>
<feBlend mode="normal" in="SourceGraphic" in2="BackgroundImageFix" result="shape"/>
<feColorMatrix in="SourceAlpha" type="matrix" values="0 0 0 0 0 0 0 0 0 0 0 0 0 0 0 0 0 0 127 0" result="hardAlpha"/>
<feMorphology radius="1.0079" operator="erode" in="SourceAlpha" result="effect1_innerShadow_543_6461"/>
<feOffset/>
<feGaussianBlur stdDeviation="0.503952"/>
<feComposite in2="hardAlpha" operator="arithmetic" k2="-1" k3="1"/>
<feColorMatrix type="matrix" values="0 0 0 0 0 0 0 0 0 0 0 0 0 0 0 0 0 0 0.25 0"/>
<feBlend mode="normal" in2="shape" result="effect1_innerShadow_543_6461"/>
</filter>
<filter id="filter1_di_543_6461" x="31.6045" y="94.8474" width="4.77238" height="3.67796" filterUnits="userSpaceOnUse" color-interpolation-filters="sRGB">
<feFlood flood-opacity="0" result="BackgroundImageFix"/>
<feColorMatrix in="SourceAlpha" type="matrix" values="0 0 0 0 0 0 0 0 0 0 0 0 0 0 0 0 0 0 127 0" result="hardAlpha"/>
<feOffset dy="0.403162"/>
<feGaussianBlur stdDeviation="0.302371"/>
<feColorMatrix type="matrix" values="0 0 0 0 1 0 0 0 0 1 0 0 0 0 1 0 0 0 0.41 0"/>
<feBlend mode="normal" in2="BackgroundImageFix" result="effect1_dropShadow_543_6461"/>
<feBlend mode="normal" in="SourceGraphic" in2="effect1_dropShadow_543_6461" result="shape"/>
<feColorMatrix in="SourceAlpha" type="matrix" values="0 0 0 0 0 0 0 0 0 0 0 0 0 0 0 0 0 0 127 0" result="hardAlpha"/>
<feOffset dx="-3.02371" dy="2.01581"/>
<feGaussianBlur stdDeviation="1.51186"/>
<feComposite in2="hardAlpha" operator="arithmetic" k2="-1" k3="1"/>
<feColorMatrix type="matrix" values="0 0 0 0 0 0 0 0 0 0 0 0 0 0 0 0 0 0 0.25 0"/>
<feBlend mode="normal" in2="shape" result="effect2_innerShadow_543_6461"/>
</filter>
<filter id="filter2_i_543_6461" x="34.036" y="94.6779" width="3.57227" height="5.20129" filterUnits="userSpaceOnUse" color-interpolation-filters="sRGB">
<feFlood flood-opacity="0" result="BackgroundImageFix"/>
<feBlend mode="normal" in="SourceGraphic" in2="BackgroundImageFix" result="shape"/>
<feColorMatrix in="SourceAlpha" type="matrix" values="0 0 0 0 0 0 0 0 0 0 0 0 0 0 0 0 0 0 127 0" result="hardAlpha"/>
<feMorphology radius="2.49949" operator="erode" in="SourceAlpha" result="effect1_innerShadow_543_6461"/>
<feOffset/>
<feGaussianBlur stdDeviation="1.24975"/>
<feComposite in2="hardAlpha" operator="arithmetic" k2="-1" k3="1"/>
<feColorMatrix type="matrix" values="0 0 0 0 0 0 0 0 0 0 0 0 0 0 0 0 0 0 0.25 0"/>
<feBlend mode="normal" in2="shape" result="effect1_innerShadow_543_6461"/>
</filter>
<filter id="filter3_di_543_6461" x="31.9353" y="95.1386" width="5.98176" height="3.95612" filterUnits="userSpaceOnUse" color-interpolation-filters="sRGB">
<feFlood flood-opacity="0" result="BackgroundImageFix"/>
<feColorMatrix in="SourceAlpha" type="matrix" values="0 0 0 0 0 0 0 0 0 0 0 0 0 0 0 0 0 0 127 0" result="hardAlpha"/>
<feOffset dy="0.852431"/>
<feGaussianBlur stdDeviation="0.53277"/>
<feColorMatrix type="matrix" values="0 0 0 0 1 0 0 0 0 1 0 0 0 0 1 0 0 0 0.59 0"/>
<feBlend mode="normal" in2="BackgroundImageFix" result="effect1_dropShadow_543_6461"/>
<feBlend mode="normal" in="SourceGraphic" in2="effect1_dropShadow_543_6461" result="shape"/>
<feColorMatrix in="SourceAlpha" type="matrix" values="0 0 0 0 0 0 0 0 0 0 0 0 0 0 0 0 0 0 127 0" result="hardAlpha"/>
<feOffset dx="-3.19662" dy="2.13108"/>
<feGaussianBlur stdDeviation="1.59831"/>
<feComposite in2="hardAlpha" operator="arithmetic" k2="-1" k3="1"/>
<feColorMatrix type="matrix" values="0 0 0 0 0 0 0 0 0 0 0 0 0 0 0 0 0 0 0.25 0"/>
<feBlend mode="normal" in2="shape" result="effect2_innerShadow_543_6461"/>
</filter>
<filter id="filter4_i_543_6461" x="19.3927" y="87.4368" width="2.901" height="4.60632" filterUnits="userSpaceOnUse" color-interpolation-filters="sRGB">
<feFlood flood-opacity="0" result="BackgroundImageFix"/>
<feBlend mode="normal" in="SourceGraphic" in2="BackgroundImageFix" result="shape"/>
<feColorMatrix in="SourceAlpha" type="matrix" values="0 0 0 0 0 0 0 0 0 0 0 0 0 0 0 0 0 0 127 0" result="hardAlpha"/>
<feMorphology radius="0.83234" operator="erode" in="SourceAlpha" result="effect1_innerShadow_543_6461"/>
<feOffset/>
<feGaussianBlur stdDeviation="0.41617"/>
<feComposite in2="hardAlpha" operator="arithmetic" k2="-1" k3="1"/>
<feColorMatrix type="matrix" values="0 0 0 0 0 0 0 0 0 0 0 0 0 0 0 0 0 0 0.25 0"/>
<feBlend mode="normal" in2="shape" result="effect1_innerShadow_543_6461"/>
</filter>
<filter id="filter5_di_543_6461" x="17.6916" y="87.6592" width="3.93393" height="3.09055" filterUnits="userSpaceOnUse" color-interpolation-filters="sRGB">
<feFlood flood-opacity="0" result="BackgroundImageFix"/>
<feColorMatrix in="SourceAlpha" type="matrix" values="0 0 0 0 0 0 0 0 0 0 0 0 0 0 0 0 0 0 127 0" result="hardAlpha"/>
<feOffset dy="0.332936"/>
<feGaussianBlur stdDeviation="0.249702"/>
<feColorMatrix type="matrix" values="0 0 0 0 1 0 0 0 0 1 0 0 0 0 1 0 0 0 0.41 0"/>
<feBlend mode="normal" in2="BackgroundImageFix" result="effect1_dropShadow_543_6461"/>
<feBlend mode="normal" in="SourceGraphic" in2="effect1_dropShadow_543_6461" result="shape"/>
<feColorMatrix in="SourceAlpha" type="matrix" values="0 0 0 0 0 0 0 0 0 0 0 0 0 0 0 0 0 0 127 0" result="hardAlpha"/>
<feOffset dx="-2.49702" dy="1.66468"/>
<feGaussianBlur stdDeviation="1.24851"/>
<feComposite in2="hardAlpha" operator="arithmetic" k2="-1" k3="1"/>
<feColorMatrix type="matrix" values="0 0 0 0 0 0 0 0 0 0 0 0 0 0 0 0 0 0 0.25 0"/>
<feBlend mode="normal" in2="shape" result="effect2_innerShadow_543_6461"/>
</filter>
<filter id="filter6_i_543_6461" x="19.3623" y="87.7737" width="2.83423" height="4.38159" filterUnits="userSpaceOnUse" color-interpolation-filters="sRGB">
<feFlood flood-opacity="0" result="BackgroundImageFix"/>
<feBlend mode="normal" in="SourceGraphic" in2="BackgroundImageFix" result="shape"/>
<feColorMatrix in="SourceAlpha" type="matrix" values="0 0 0 0 0 0 0 0 0 0 0 0 0 0 0 0 0 0 127 0" result="hardAlpha"/>
<feMorphology radius="2.49949" operator="erode" in="SourceAlpha" result="effect1_innerShadow_543_6461"/>
<feOffset/>
<feGaussianBlur stdDeviation="1.24975"/>
<feComposite in2="hardAlpha" operator="arithmetic" k2="-1" k3="1"/>
<feColorMatrix type="matrix" values="0 0 0 0 0 0 0 0 0 0 0 0 0 0 0 0 0 0 0.25 0"/>
<feBlend mode="normal" in2="shape" result="effect1_innerShadow_543_6461"/>
</filter>
<filter id="filter7_i_543_6461" x="19.3623" y="87.7737" width="2.83423" height="4.38159" filterUnits="userSpaceOnUse" color-interpolation-filters="sRGB">
<feFlood flood-opacity="0" result="BackgroundImageFix"/>
<feBlend mode="normal" in="SourceGraphic" in2="BackgroundImageFix" result="shape"/>
<feColorMatrix in="SourceAlpha" type="matrix" values="0 0 0 0 0 0 0 0 0 0 0 0 0 0 0 0 0 0 127 0" result="hardAlpha"/>
<feMorphology radius="0.749096" operator="erode" in="SourceAlpha" result="effect1_innerShadow_543_6461"/>
<feOffset/>
<feGaussianBlur stdDeviation="0.374548"/>
<feComposite in2="hardAlpha" operator="arithmetic" k2="-1" k3="1"/>
<feColorMatrix type="matrix" values="0 0 0 0 0 0 0 0 0 0 0 0 0 0 0 0 0 0 0.25 0"/>
<feBlend mode="normal" in2="shape" result="effect1_innerShadow_543_6461"/>
</filter>
<filter id="filter8_di_543_6461" x="17.1996" y="88.1148" width="5.52424" height="3.79695" filterUnits="userSpaceOnUse" color-interpolation-filters="sRGB">
<feFlood flood-opacity="0" result="BackgroundImageFix"/>
<feColorMatrix in="SourceAlpha" type="matrix" values="0 0 0 0 0 0 0 0 0 0 0 0 0 0 0 0 0 0 127 0" result="hardAlpha"/>
<feOffset dy="0.852432"/>
<feGaussianBlur stdDeviation="0.53277"/>
<feColorMatrix type="matrix" values="0 0 0 0 1 0 0 0 0 1 0 0 0 0 1 0 0 0 0.59 0"/>
<feBlend mode="normal" in2="BackgroundImageFix" result="effect1_dropShadow_543_6461"/>
<feBlend mode="normal" in="SourceGraphic" in2="effect1_dropShadow_543_6461" result="shape"/>
<feColorMatrix in="SourceAlpha" type="matrix" values="0 0 0 0 0 0 0 0 0 0 0 0 0 0 0 0 0 0 127 0" result="hardAlpha"/>
<feOffset dx="-3.19662" dy="2.13108"/>
<feGaussianBlur stdDeviation="1.59831"/>
<feComposite in2="hardAlpha" operator="arithmetic" k2="-1" k3="1"/>
<feColorMatrix type="matrix" values="0 0 0 0 0 0 0 0 0 0 0 0 0 0 0 0 0 0 0.25 0"/>
<feBlend mode="normal" in2="shape" result="effect2_innerShadow_543_6461"/>
</filter>
<filter id="filter9_ii_543_6461" x="17.5992" y="66.4776" width="45.8291" height="35.2414" filterUnits="userSpaceOnUse" color-interpolation-filters="sRGB">
<feFlood flood-opacity="0" result="BackgroundImageFix"/>
<feBlend mode="normal" in="SourceGraphic" in2="BackgroundImageFix" result="shape"/>
<feColorMatrix in="SourceAlpha" type="matrix" values="0 0 0 0 0 0 0 0 0 0 0 0 0 0 0 0 0 0 127 0" result="hardAlpha"/>
<feOffset dx="9.29293" dy="-12.3906"/>
<feGaussianBlur stdDeviation="37.1717"/>
<feComposite in2="hardAlpha" operator="arithmetic" k2="-1" k3="1"/>
<feColorMatrix type="matrix" values="0 0 0 0 0 0 0 0 0 0 0 0 0 0 0 0 0 0 0.07 0"/>
<feBlend mode="normal" in2="shape" result="effect1_innerShadow_543_6461"/>
<feColorMatrix in="SourceAlpha" type="matrix" values="0 0 0 0 0 0 0 0 0 0 0 0 0 0 0 0 0 0 127 0" result="hardAlpha"/>
<feOffset dy="-1.54882"/>
<feGaussianBlur stdDeviation="3.09764"/>
<feComposite in2="hardAlpha" operator="arithmetic" k2="-1" k3="1"/>
<feColorMatrix type="matrix" values="0 0 0 0 0 0 0 0 0 0 0 0 0 0 0 0 0 0 0.09 0"/>
<feBlend mode="normal" in2="effect1_innerShadow_543_6461" result="effect2_innerShadow_543_6461"/>
</filter>
<filter id="filter10_ddi_543_6461" x="28.952" y="79.139" width="18.044" height="13.8188" filterUnits="userSpaceOnUse" color-interpolation-filters="sRGB">
<feFlood flood-opacity="0" result="BackgroundImageFix"/>
<feColorMatrix in="SourceAlpha" type="matrix" values="0 0 0 0 0 0 0 0 0 0 0 0 0 0 0 0 0 0 127 0" result="hardAlpha"/>
<feOffset dx="-2.01581" dy="1.0079"/>
<feGaussianBlur stdDeviation="1.0079"/>
<feColorMatrix type="matrix" values="0 0 0 0 1 0 0 0 0 1 0 0 0 0 1 0 0 0 0.28 0"/>
<feBlend mode="normal" in2="BackgroundImageFix" result="effect1_dropShadow_543_6461"/>
<feColorMatrix in="SourceAlpha" type="matrix" values="0 0 0 0 0 0 0 0 0 0 0 0 0 0 0 0 0 0 127 0" result="hardAlpha"/>
<feOffset dy="-1.0079"/>
<feGaussianBlur stdDeviation="1.0079"/>
<feColorMatrix type="matrix" values="0 0 0 0 1 0 0 0 0 1 0 0 0 0 1 0 0 0 0.56 0"/>
<feBlend mode="normal" in2="effect1_dropShadow_543_6461" result="effect2_dropShadow_543_6461"/>
<feBlend mode="normal" in="SourceGraphic" in2="effect2_dropShadow_543_6461" result="shape"/>
<feColorMatrix in="SourceAlpha" type="matrix" values="0 0 0 0 0 0 0 0 0 0 0 0 0 0 0 0 0 0 127 0" result="hardAlpha"/>
<feOffset dx="-1.0079" dy="3.02371"/>
<feGaussianBlur stdDeviation="1.51186"/>
<feComposite in2="hardAlpha" operator="arithmetic" k2="-1" k3="1"/>
<feColorMatrix type="matrix" values="0 0 0 0 0 0 0 0 0 0 0 0 0 0 0 0 0 0 0.75 0"/>
<feBlend mode="normal" in2="shape" result="effect3_innerShadow_543_6461"/>
</filter>
<filter id="filter11_di_543_6461" x="16.9106" y="82.3938" width="17.9344" height="11.3427" filterUnits="userSpaceOnUse" color-interpolation-filters="sRGB">
<feFlood flood-opacity="0" result="BackgroundImageFix"/>
<feColorMatrix in="SourceAlpha" type="matrix" values="0 0 0 0 0 0 0 0 0 0 0 0 0 0 0 0 0 0 127 0" result="hardAlpha"/>
<feOffset dy="1.0423"/>
<feGaussianBlur stdDeviation="0.521152"/>
<feColorMatrix type="matrix" values="0 0 0 0 0.925374 0 0 0 0 0.925374 0 0 0 0 0.925374 0 0 0 0.37 0"/>
<feBlend mode="normal" in2="BackgroundImageFix" result="effect1_dropShadow_543_6461"/>
<feBlend mode="normal" in="SourceGraphic" in2="effect1_dropShadow_543_6461" result="shape"/>
<feColorMatrix in="SourceAlpha" type="matrix" values="0 0 0 0 0 0 0 0 0 0 0 0 0 0 0 0 0 0 127 0" result="hardAlpha"/>
<feOffset dx="-4.03162" dy="5.03952"/>
<feGaussianBlur stdDeviation="2.01581"/>
<feComposite in2="hardAlpha" operator="arithmetic" k2="-1" k3="1"/>
<feColorMatrix type="matrix" values="0 0 0 0 0 0 0 0 0 0 0 0 0 0 0 0 0 0 0.8 0"/>
<feBlend mode="normal" in2="shape" result="effect2_innerShadow_543_6461"/>
</filter>
<filter id="filter12_di_543_6461" x="16.9424" y="79.0369" width="13.8607" height="7.15637" filterUnits="userSpaceOnUse" color-interpolation-filters="sRGB">
<feFlood flood-opacity="0" result="BackgroundImageFix"/>
<feColorMatrix in="SourceAlpha" type="matrix" values="0 0 0 0 0 0 0 0 0 0 0 0 0 0 0 0 0 0 127 0" result="hardAlpha"/>
<feOffset dy="1.0423"/>
<feGaussianBlur stdDeviation="0.521152"/>
<feColorMatrix type="matrix" values="0 0 0 0 0.925374 0 0 0 0 0.925374 0 0 0 0 0.925374 0 0 0 0.37 0"/>
<feBlend mode="normal" in2="BackgroundImageFix" result="effect1_dropShadow_543_6461"/>
<feBlend mode="normal" in="SourceGraphic" in2="effect1_dropShadow_543_6461" result="shape"/>
<feColorMatrix in="SourceAlpha" type="matrix" values="0 0 0 0 0 0 0 0 0 0 0 0 0 0 0 0 0 0 127 0" result="hardAlpha"/>
<feOffset dx="-4.03162" dy="5.03952"/>
<feGaussianBlur stdDeviation="2.01581"/>
<feComposite in2="hardAlpha" operator="arithmetic" k2="-1" k3="1"/>
<feColorMatrix type="matrix" values="0 0 0 0 0 0 0 0 0 0 0 0 0 0 0 0 0 0 0.8 0"/>
<feBlend mode="normal" in2="shape" result="effect2_innerShadow_543_6461"/>
</filter>
<filter id="filter13_f_543_6461" x="4.72691" y="61.1716" width="71.4656" height="62.0345" filterUnits="userSpaceOnUse" color-interpolation-filters="sRGB">
<feFlood flood-opacity="0" result="BackgroundImageFix"/>
<feBlend mode="normal" in="SourceGraphic" in2="BackgroundImageFix" result="shape"/>
<feGaussianBlur stdDeviation="14.1107" result="effect1_foregroundBlur_543_6461"/>
</filter>
<filter id="filter14_f_543_6461" x="27.7211" y="66.3493" width="42.7645" height="43.7437" filterUnits="userSpaceOnUse" color-interpolation-filters="sRGB">
<feFlood flood-opacity="0" result="BackgroundImageFix"/>
<feBlend mode="normal" in="SourceGraphic" in2="BackgroundImageFix" result="shape"/>
<feGaussianBlur stdDeviation="9.07114" result="effect1_foregroundBlur_543_6461"/>
</filter>
<filter id="filter15_di_543_6461" x="27.5068" y="88.3978" width="2.12809" height="4.21755" filterUnits="userSpaceOnUse" color-interpolation-filters="sRGB">
<feFlood flood-opacity="0" result="BackgroundImageFix"/>
<feColorMatrix in="SourceAlpha" type="matrix" values="0 0 0 0 0 0 0 0 0 0 0 0 0 0 0 0 0 0 127 0" result="hardAlpha"/>
<feOffset dy="-0.499898"/>
<feGaussianBlur stdDeviation="0.249949"/>
<feColorMatrix type="matrix" values="0 0 0 0 0.78755 0 0 0 0 0.78755 0 0 0 0 0.78755 0 0 0 0.19 0"/>
<feBlend mode="normal" in2="BackgroundImageFix" result="effect1_dropShadow_543_6461"/>
<feBlend mode="normal" in="SourceGraphic" in2="effect1_dropShadow_543_6461" result="shape"/>
<feColorMatrix in="SourceAlpha" type="matrix" values="0 0 0 0 0 0 0 0 0 0 0 0 0 0 0 0 0 0 127 0" result="hardAlpha"/>
<feOffset dy="2.49949"/>
<feGaussianBlur stdDeviation="1.24975"/>
<feComposite in2="hardAlpha" operator="arithmetic" k2="-1" k3="1"/>
<feColorMatrix type="matrix" values="0 0 0 0 0 0 0 0 0 0 0 0 0 0 0 0 0 0 0.74 0"/>
<feBlend mode="normal" in2="shape" result="effect2_innerShadow_543_6461"/>
</filter>
<filter id="filter16_di_543_6461" x="22.2722" y="86.088" width="2.12809" height="4.21755" filterUnits="userSpaceOnUse" color-interpolation-filters="sRGB">
<feFlood flood-opacity="0" result="BackgroundImageFix"/>
<feColorMatrix in="SourceAlpha" type="matrix" values="0 0 0 0 0 0 0 0 0 0 0 0 0 0 0 0 0 0 127 0" result="hardAlpha"/>
<feOffset dy="-0.499898"/>
<feGaussianBlur stdDeviation="0.249949"/>
<feColorMatrix type="matrix" values="0 0 0 0 0.78755 0 0 0 0 0.78755 0 0 0 0 0.78755 0 0 0 0.19 0"/>
<feBlend mode="normal" in2="BackgroundImageFix" result="effect1_dropShadow_543_6461"/>
<feBlend mode="normal" in="SourceGraphic" in2="effect1_dropShadow_543_6461" result="shape"/>
<feColorMatrix in="SourceAlpha" type="matrix" values="0 0 0 0 0 0 0 0 0 0 0 0 0 0 0 0 0 0 127 0" result="hardAlpha"/>
<feOffset dy="2.49949"/>
<feGaussianBlur stdDeviation="1.24975"/>
<feComposite in2="hardAlpha" operator="arithmetic" k2="-1" k3="1"/>
<feColorMatrix type="matrix" values="0 0 0 0 0 0 0 0 0 0 0 0 0 0 0 0 0 0 0.74 0"/>
<feBlend mode="normal" in2="shape" result="effect2_innerShadow_543_6461"/>
</filter>
<filter id="filter17_f_543_6461" x="16.6573" y="83.2927" width="22.2881" height="18.7045" filterUnits="userSpaceOnUse" color-interpolation-filters="sRGB">
<feFlood flood-opacity="0" result="BackgroundImageFix"/>
<feBlend mode="normal" in="SourceGraphic" in2="BackgroundImageFix" result="shape"/>
<feGaussianBlur stdDeviation="3.02371" result="effect1_foregroundBlur_543_6461"/>
</filter>
<filter id="filter18_ddii_543_6461" x="40.4621" y="89.4564" width="14.8056" height="17.0193" filterUnits="userSpaceOnUse" color-interpolation-filters="sRGB">
<feFlood flood-opacity="0" result="BackgroundImageFix"/>
<feColorMatrix in="SourceAlpha" type="matrix" values="0 0 0 0 0 0 0 0 0 0 0 0 0 0 0 0 0 0 127 0" result="hardAlpha"/>
<feOffset dy="0.94086"/>
<feGaussianBlur stdDeviation="0.62724"/>
<feColorMatrix type="matrix" values="0 0 0 0 0 0 0 0 0 0 0 0 0 0 0 0 0 0 0.57 0"/>
<feBlend mode="normal" in2="BackgroundImageFix" result="effect1_dropShadow_543_6461"/>
<feColorMatrix in="SourceAlpha" type="matrix" values="0 0 0 0 0 0 0 0 0 0 0 0 0 0 0 0 0 0 127 0" result="hardAlpha"/>
<feOffset dy="-0.62724"/>
<feGaussianBlur stdDeviation="0.62724"/>
<feColorMatrix type="matrix" values="0 0 0 0 0 0 0 0 0 0 0 0 0 0 0 0 0 0 1 0"/>
<feBlend mode="normal" in2="effect1_dropShadow_543_6461" result="effect2_dropShadow_543_6461"/>
<feBlend mode="normal" in="SourceGraphic" in2="effect2_dropShadow_543_6461" result="shape"/>
<feColorMatrix in="SourceAlpha" type="matrix" values="0 0 0 0 0 0 0 0 0 0 0 0 0 0 0 0 0 0 127 0" result="hardAlpha"/>
<feOffset dy="8.64724"/>
<feGaussianBlur stdDeviation="8.81247"/>
<feComposite in2="hardAlpha" operator="arithmetic" k2="-1" k3="1"/>
<feColorMatrix type="matrix" values="0 0 0 0 0 0 0 0 0 0 0 0 0 0 0 0 0 0 1 0"/>
<feBlend mode="normal" in2="shape" result="effect3_innerShadow_543_6461"/>
<feColorMatrix in="SourceAlpha" type="matrix" values="0 0 0 0 0 0 0 0 0 0 0 0 0 0 0 0 0 0 127 0" result="hardAlpha"/>
<feOffset dy="-0.942296"/>
<feGaussianBlur stdDeviation="0.942296"/>
<feComposite in2="hardAlpha" operator="arithmetic" k2="-1" k3="1"/>
<feColorMatrix type="matrix" values="0 0 0 0 0 0 0 0 0 0 0 0 0 0 0 0 0 0 1 0"/>
<feBlend mode="normal" in2="effect3_innerShadow_543_6461" result="effect4_innerShadow_543_6461"/>
</filter>
<filter id="filter19_d_543_6461" x="42.3077" y="95.3517" width="6.46153" height="3.95506" filterUnits="userSpaceOnUse" color-interpolation-filters="sRGB">
<feFlood flood-opacity="0" result="BackgroundImageFix"/>
<feColorMatrix in="SourceAlpha" type="matrix" values="0 0 0 0 0 0 0 0 0 0 0 0 0 0 0 0 0 0 127 0" result="hardAlpha"/>
<feOffset dx="0.999797" dy="1.24194"/>
<feGaussianBlur stdDeviation="0.620968"/>
<feColorMatrix type="matrix" values="0 0 0 0 1 0 0 0 0 1 0 0 0 0 1 0 0 0 0.24 0"/>
<feBlend mode="normal" in2="BackgroundImageFix" result="effect1_dropShadow_543_6461"/>
<feBlend mode="normal" in="SourceGraphic" in2="effect1_dropShadow_543_6461" result="shape"/>
</filter>
<filter id="filter20_d_543_6461" x="52.3328" y="91.4045" width="3.62596" height="3.92711" filterUnits="userSpaceOnUse" color-interpolation-filters="sRGB">
<feFlood flood-opacity="0" result="BackgroundImageFix"/>
<feColorMatrix in="SourceAlpha" type="matrix" values="0 0 0 0 0 0 0 0 0 0 0 0 0 0 0 0 0 0 127 0" result="hardAlpha"/>
<feOffset dx="0.999797" dy="1.24194"/>
<feGaussianBlur stdDeviation="0.620968"/>
<feColorMatrix type="matrix" values="0 0 0 0 1 0 0 0 0 1 0 0 0 0 1 0 0 0 0.24 0"/>
<feBlend mode="normal" in2="BackgroundImageFix" result="effect1_dropShadow_543_6461"/>
<feBlend mode="normal" in="SourceGraphic" in2="effect1_dropShadow_543_6461" result="shape"/>
</filter>
<linearGradient id="paint0_linear_543_6461" x1="8.5" y1="5.5" x2="103.5" y2="113.5" gradientUnits="userSpaceOnUse">
<stop stop-color="#CFF5FF"/>
<stop offset="0.59375" stop-color="#CFF5FF" stop-opacity="0.927083"/>
<stop offset="1" stop-color="#CFF5FF" stop-opacity="0"/>
</linearGradient>
<linearGradient id="paint1_linear_543_6461" x1="3.94262" y1="4.33101" x2="4.1389" y2="1.41125" gradientUnits="userSpaceOnUse">
<stop stop-color="#3F3F3F"/>
<stop offset="1" stop-color="#5C5C5C"/>
</linearGradient>
<linearGradient id="paint2_linear_543_6461" x1="3.69531" y1="4.17644" x2="3.88999" y2="1.36162" gradientUnits="userSpaceOnUse">
<stop stop-color="#AAAAAA"/>
<stop offset="1" stop-color="#C2C2C2"/>
</linearGradient>
<linearGradient id="paint3_linear_543_6461" x1="3.25608" y1="3.57637" x2="3.41814" y2="1.16535" gradientUnits="userSpaceOnUse">
<stop stop-color="#3F3F3F"/>
<stop offset="1" stop-color="#5C5C5C"/>
</linearGradient>
<linearGradient id="paint4_linear_543_6461" x1="3.05468" y1="3.45315" x2="3.21568" y2="1.12582" gradientUnits="userSpaceOnUse">
<stop stop-color="#AAAAAA"/>
<stop offset="1" stop-color="#C2C2C2"/>
</linearGradient>
<linearGradient id="paint5_linear_543_6461" x1="23.5962" y1="91.9154" x2="52.815" y2="88.1391" gradientUnits="userSpaceOnUse">
<stop stop-color="#CECBCB"/>
<stop offset="1" stop-color="white"/>
</linearGradient>
<linearGradient id="paint6_linear_543_6461" x1="39.7586" y1="75.1632" x2="30.2216" y2="84.1893" gradientUnits="userSpaceOnUse">
<stop stop-color="#E8EAE9"/>
<stop offset="0.498386" stop-color="#707072"/>
<stop offset="1" stop-color="#2F3032"/>
</linearGradient>
<linearGradient id="paint7_linear_543_6461" x1="24.0955" y1="105.389" x2="33.205" y2="88.7359" gradientUnits="userSpaceOnUse">
<stop stop-color="#E8EAE9"/>
<stop offset="0.498386" stop-color="#707072"/>
<stop offset="1" stop-color="#2F3032"/>
</linearGradient>
<linearGradient id="paint8_linear_543_6461" x1="20.2078" y1="88.181" x2="25.2875" y2="80.7447" gradientUnits="userSpaceOnUse">
<stop stop-color="#E8EAE9"/>
<stop offset="0.498386" stop-color="#707072"/>
<stop offset="1" stop-color="#2F3032"/>
</linearGradient>
<linearGradient id="paint9_linear_543_6461" x1="39.9632" y1="95.3087" x2="41.1466" y2="91.8486" gradientUnits="userSpaceOnUse">
<stop stop-color="#ECEAEA"/>
<stop offset="1" stop-color="white" stop-opacity="0"/>
</linearGradient>
<linearGradient id="paint10_linear_543_6461" x1="53.4176" y1="89.1446" x2="48.9504" y2="90.704" gradientUnits="userSpaceOnUse">
<stop stop-color="#ECEAEA"/>
<stop offset="1" stop-color="white" stop-opacity="0"/>
</linearGradient>
<linearGradient id="paint11_linear_543_6461" x1="29.3395" y1="95.9016" x2="30.6829" y2="93.0428" gradientUnits="userSpaceOnUse">
<stop stop-color="#040404"/>
<stop offset="1" stop-color="#3C3C3C" stop-opacity="0"/>
</linearGradient>
</defs>
</svg>
